<svg width="648" height="200" viewBox="0 0 648 200" fill="none" xmlns="http://www.w3.org/2000/svg">
<path d="M155.64 105H0V200L159.931 124.033C175.695 116.545 183.577 112.801 182.698 108.9C181.819 105 173.092 105 155.64 105Z" fill="#40AFED"/>
<mask id="mask0_255:3" style="mask-type:alpha" maskUnits="userSpaceOnUse" x="0" y="105" width="183" height="95">
<path d="M155.64 105H0V200L159.931 124.033C175.695 116.545 183.577 112.801 182.698 108.9C181.819 105 173.092 105 155.64 105Z" fill="#40AFED"/>
</mask>
<g mask="url(#mask0_255:3)">
<path d="M133 105H0V200Z" fill="#1A83DF"/>
</g>
<path d="M157.546 0H10C5.28595 0 2.92893 0 1.46447 1.46447C0 2.92893 0 5.28596 0 10V200L164.979 16.6896C171.434 9.51763 174.662 5.93161 173.341 2.96581C172.02 0 167.195 0 157.546 0Z" fill="#40AFED"/>
<path d="M247.911 31.6906V52.1326H283.732V66.4972H247.911V94.674H230V17.326H288.486V31.6906H247.911Z" fill="#FFF"/>
<path d="M302.823 17.326H320.733V80.0884H359.54V94.674H302.823V17.326Z" fill="#FFF"/>
<path d="M371.759 17.326H389.669V94.674H371.759V17.326Z" fill="#FFF"/>
<path d="M462.542 54.7845H478.905V86.1658C474.704 89.3333 469.839 91.7643 464.311 93.4586C458.783 95.1529 453.218 96 447.616 96C439.582 96 432.359 94.3057 425.947 90.9171C419.534 87.4549 414.485 82.7035 410.8 76.663C407.188 70.5488 405.383 63.6611 405.383 56C405.383 48.3389 407.188 41.488 410.8 35.4475C414.485 29.3333 419.571 24.582 426.057 21.1934C432.543 17.7311 439.84 16 447.948 16C454.729 16 460.884 17.1418 466.412 19.4254C471.94 21.709 476.583 25.0239 480.342 29.3702L468.844 39.9779C463.316 34.1584 456.646 31.2486 448.833 31.2486C443.894 31.2486 439.509 32.2799 435.676 34.3425C431.843 36.4052 428.858 39.3149 426.721 43.0718C424.583 46.8287 423.514 51.1381 423.514 56C423.514 60.7882 424.583 65.0608 426.721 68.8177C428.858 72.5746 431.806 75.5212 435.565 77.6575C439.398 79.7201 443.747 80.7514 448.611 80.7514C453.771 80.7514 458.414 79.6464 462.542 77.4365V54.7845Z" fill="#FFF"/>
<path d="M568.733 17.326V94.674H550.822V62.9613H515.664V94.674H497.754V17.326H515.664V47.8232H550.822V17.326H568.733Z" fill="#FFF"/>
<path d="M605.286 31.9116H580.521V17.326H647.962V31.9116H623.197V94.674H605.286V31.9116Z" fill="#FFF"/>
<path d="M283.419 165.834H245.609L237.465 184H230L261.024 116H268.101L299.125 184H291.563L283.419 165.834ZM280.802 160.006L264.514 123.48L248.227 160.006H280.802Z" fill="#FFF"/>
<path d="M337.692 116C346.353 116 353.139 118.072 358.051 122.217C362.964 126.362 365.42 132.061 365.42 139.314C365.42 146.568 362.964 152.267 358.051 156.411C353.139 160.491 346.353 162.531 337.692 162.531H319.465V184H312.291V116H337.692ZM337.498 156.217C344.22 156.217 349.358 154.76 352.913 151.846C356.468 148.867 358.245 144.69 358.245 139.314C358.245 133.81 356.468 129.6 352.913 126.686C349.358 123.707 344.22 122.217 337.498 122.217H319.465V156.217H337.498Z" fill="#FFF"/>
<path d="M408.272 116C416.933 116 423.72 118.072 428.632 122.217C433.544 126.362 436 132.061 436 139.314C436 146.568 433.544 152.267 428.632 156.411C423.72 160.491 416.933 162.531 408.272 162.531H390.046V184H382.871V116H408.272ZM408.078 156.217C414.8 156.217 419.939 154.76 423.493 151.846C427.048 148.867 428.826 144.69 428.826 139.314C428.826 133.81 427.048 129.6 423.493 126.686C419.939 123.707 414.8 122.217 408.078 122.217H390.046V156.217H408.078Z" fill="#FFF"/>
<path
  d="M490 116 h16 l-5 45 h-6 l-5 -45
    m3 68 h10 v-10 h-10"
  transform="skewX(-10)"
  fill="#FFF"/>
</svg>
