<svg width="24" height="25" viewBox="0 0 24 25" fill="#A6A6A6" xmlns="http://www.w3.org/2000/svg">
<path d="M12.9877 8.56237C12.9931 8.54224 12.9973 8.52177 13 8.50109V5.50103C13 5.48656 12.9904 5.47485 12.9892 5.46062C12.9845 5.40218 12.9692 5.34507 12.9442 5.29204C12.9359 5.27182 12.9262 5.25219 12.9152 5.23332C12.8759 5.17001 12.8226 5.1165 12.7594 5.07689L12.751 5.0684L12.7492 5.06791L12.7481 5.06691L9.24807 3.06687C9.17247 3.02381 9.087 3.00111 9 3.00098H4C3.91301 3.00112 3.82754 3.02383 3.75195 3.0669L0.25195 5.06694L0.25085 5.06794L0.249 5.0684L0.24052 5.07689C0.1774 5.11644 0.124163 5.16991 0.08488 5.2332C0.0738257 5.25217 0.0640991 5.27189 0.05577 5.2922C0.0308104 5.34514 0.0155907 5.40214 0.01084 5.46048C0.00964 5.47472 0 5.4865 0 5.50103V20.5008C0.00276219 20.5216 0.00690129 20.5422 0.01239 20.5624C0.015627 20.5965 0.0224173 20.6301 0.03265 20.6627C0.0438737 20.6927 0.0580642 20.7214 0.07501 20.7486C0.0898359 20.776 0.107295 20.8019 0.12714 20.8259C0.150263 20.851 0.17598 20.8736 0.20386 20.8933C0.218908 20.9084 0.234976 20.9225 0.25195 20.9354L3.75195 22.9355C3.82758 22.9784 3.91305 23.0009 4 23.0009H9C9.0868 23.0009 9.17211 22.9784 9.24756 22.9355L9.72266 22.6649C9.83743 22.599 9.9214 22.4903 9.95617 22.3626C9.99094 22.2349 9.97368 22.0987 9.90817 21.9837C9.84266 21.8687 9.73425 21.7843 9.60667 21.7491C9.47909 21.7139 9.34276 21.7307 9.22754 21.7958L8.86768 22.0009H4.13281L1 20.2102V18.3628L3.752 19.9354C3.82761 19.9783 3.91306 20.0009 4 20.0008H9C9.0868 20.0009 9.17211 19.9783 9.24756 19.9354L9.72266 19.6649C9.83743 19.599 9.9214 19.4903 9.95617 19.3626C9.99094 19.2349 9.97368 19.0986 9.90817 18.9836C9.84266 18.8686 9.73425 18.7843 9.60667 18.749C9.47909 18.7138 9.34276 18.7306 9.22754 18.7957L8.86768 19.0008H4.13281L1 17.2111V15.3627L3.752 16.9353C3.82757 16.9784 3.91302 17.0011 4 17.0013H9C9.08688 17.0014 9.17226 16.9787 9.24756 16.9353L9.72266 16.6643C9.8372 16.5984 9.92095 16.4897 9.95556 16.3622C9.99018 16.2346 9.97286 16.0985 9.90738 15.9837C9.8419 15.8689 9.7336 15.7847 9.60619 15.7495C9.47878 15.7144 9.34263 15.7311 9.22754 15.7961L8.86719 16.0012H4.13281L1 14.2111V12.3627L3.752 13.9353C3.82757 13.9783 3.91302 14.0011 4 14.0012H9C9.08688 14.0014 9.17226 13.9786 9.24756 13.9353L9.72266 13.6643C9.8372 13.5983 9.92095 13.4897 9.95556 13.3621C9.99018 13.2345 9.97286 13.0985 9.90738 12.9836C9.8419 12.8688 9.7336 12.7846 9.60619 12.7495C9.47878 12.7143 9.34263 12.7311 9.22754 12.7961L8.86719 13.0012H4.13281L1 11.211V9.36262L3.752 10.9352C3.82757 10.9783 3.91302 11.001 4 11.0011H9C9.08698 11.001 9.17243 10.9783 9.248 10.9352L12.748 8.93518C12.7643 8.92269 12.7798 8.90915 12.7943 8.89465C12.823 8.87459 12.8494 8.85151 12.8731 8.82581C12.9117 8.77608 12.9434 8.72136 12.9673 8.66314C12.9777 8.63037 12.9845 8.59659 12.9877 8.56237ZM4.13281 4.001H8.86719L11.4923 5.50103L8.86719 7.00106H4.13281L1.50769 5.50103L4.13281 4.001ZM8.86719 10.0011H4.13281L1 8.21098V6.36287L3.752 7.93516C3.82757 7.97821 3.91302 8.00093 4 8.00108H9C9.08698 8.00093 9.17243 7.97821 9.248 7.93516L12 6.36287V8.21098L8.86719 10.0011Z" fill-opacity="0.5" />
<path d="M18 7.50111V6.50109C18 6.36848 18.0527 6.2413 18.1464 6.14753C18.2402 6.05376 18.3674 6.00108 18.5 6.00108C18.6326 6.00108 18.7598 6.05376 18.8536 6.14753C18.9473 6.2413 19 6.36848 19 6.50109V7.50111C19 7.63372 18.9473 7.7609 18.8536 7.85467C18.7598 7.94844 18.6326 8.00112 18.5 8.00112C18.3674 8.00112 18.2402 7.94844 18.1464 7.85467C18.0527 7.7609 18 7.63372 18 7.50111ZM18.5 3.00102C18.5657 3.00106 18.6307 2.98815 18.6914 2.96303C18.7521 2.93792 18.8072 2.90109 18.8536 2.85465C18.9001 2.80822 18.9369 2.75308 18.962 2.6924C18.9871 2.63172 19 2.56668 19 2.50101V1.50099C19 1.36838 18.9473 1.2412 18.8536 1.14743C18.7598 1.05366 18.6326 1.00098 18.5 1.00098C18.3674 1.00098 18.2402 1.05366 18.1464 1.14743C18.0527 1.2412 18 1.36838 18 1.50099V2.50101C18 2.56668 18.0129 2.63172 18.038 2.6924C18.0631 2.75308 18.0999 2.80822 18.1464 2.85465C18.1928 2.90109 18.2479 2.93792 18.3086 2.96303C18.3693 2.98815 18.4343 3.00106 18.5 3.00102ZM20.5 5.00106H21.5C21.6326 5.00106 21.7598 4.94838 21.8536 4.85461C21.9473 4.76084 22 4.63366 22 4.50105C22 4.36844 21.9473 4.24126 21.8536 4.14749C21.7598 4.05372 21.6326 4.00104 21.5 4.00104H20.5C20.3674 4.00104 20.2402 4.05372 20.1464 4.14749C20.0527 4.24126 20 4.36844 20 4.50105C20 4.63366 20.0527 4.76084 20.1464 4.85461C20.2402 4.94838 20.3674 5.00106 20.5 5.00106ZM23.9674 20.6628C23.9144 20.7682 23.8397 20.8612 23.7481 20.9355L20.2481 22.9355C20.1724 22.9784 20.087 23.001 20 23.0009H15C14.9131 23.001 14.8276 22.9784 14.752 22.9355L11.252 20.9355C11.235 20.9225 11.219 20.9084 11.2039 20.8933C11.1271 20.8333 11.0679 20.7537 11.0327 20.6628C11.0225 20.6301 11.0157 20.5965 11.0124 20.5625C11.0069 20.5422 11.0028 20.5217 11 20.5009V11.5012C11 11.4867 11.0096 11.4749 11.0109 11.4606C11.0156 11.4023 11.0308 11.3453 11.0558 11.2923C11.0641 11.272 11.0738 11.2523 11.0849 11.2333C11.1242 11.17 11.1774 11.1166 11.2405 11.077L11.249 11.0685L11.2508 11.068L11.252 11.067L14.752 9.06699C14.8275 9.02395 14.913 9.00126 15 9.00114H20C20.087 9.00129 20.1724 9.02401 20.248 9.06706L23.748 11.0671L23.7491 11.0681L23.7509 11.0686L23.7593 11.0771C23.8225 11.1167 23.8758 11.1702 23.9151 11.2335C23.9261 11.2524 23.9358 11.272 23.9441 11.2922C23.9691 11.3453 23.9844 11.4024 23.9891 11.4608C23.9903 11.475 23.9999 11.4868 23.9999 11.5012V20.5009C23.9971 20.5216 23.993 20.5421 23.9875 20.5623C23.9844 20.5964 23.9776 20.6301 23.9674 20.6628ZM23 12.363L20.248 13.9353C20.1724 13.9784 20.087 14.0011 20 14.0012H15C14.913 14.0011 14.8276 13.9784 14.752 13.9353L12 12.363V14.2111L15.1328 16.0013H19.8672L23 14.2111V12.363ZM12 17.2111L15.1328 19.0008H19.8672L23 17.2111V15.3628L20.248 16.9354C20.1724 16.9784 20.087 17.0012 20 17.0013H15C14.913 17.0012 14.8276 16.9784 14.752 16.9354L12 15.3628V17.2111ZM12.5077 11.5012L15.1328 13.0012H19.8672L22.4923 11.5012L19.8672 10.0012H15.1328L12.5077 11.5012ZM23 20.2103V18.3628L20.248 19.9354C20.1724 19.9783 20.0869 20.0009 20 20.0009H15C14.9131 20.0009 14.8276 19.9783 14.752 19.9354L12 18.3628V20.2103L15.1328 22.0009H19.8672L23 20.2103ZM15.5 5.00106H16.5C16.6326 5.00106 16.7598 4.94838 16.8536 4.85461C16.9473 4.76084 17 4.63366 17 4.50105C17 4.36844 16.9473 4.24126 16.8536 4.14749C16.7598 4.05372 16.6326 4.00104 16.5 4.00104H15.5C15.3674 4.00104 15.2402 4.05372 15.1464 4.14749C15.0527 4.24126 15 4.36844 15 4.50105C15 4.63366 15.0527 4.76084 15.1464 4.85461C15.2402 4.94838 15.3674 5.00106 15.5 5.00106Z" fill-opacity="0.75" />
</svg>
