<svg width="24" height="24" viewBox="0 0 24 24" fill="#40AFED" xmlns="http://www.w3.org/2000/svg">
<g clip-path="url(#clip0_9201_27268)">
<path d="M18.5 14.2991C18.5657 14.299 18.6307 14.3122 18.6914 14.3379C18.752 14.3635 18.8072 14.4011 18.8536 14.4485C18.9001 14.496 18.9369 14.5523 18.962 14.6142C18.9871 14.6762 19 14.7426 19 14.8097V15.3203H19.5C19.6326 15.3203 19.7598 15.3741 19.8535 15.4699C19.9473 15.5657 20 15.6956 20 15.831C20 15.9664 19.9473 16.0963 19.8535 16.1921C19.7598 16.2878 19.6326 16.3416 19.5 16.3416H17.8086L17.5586 16.8523L17.8086 17.3629H19.5C19.5928 17.363 19.6838 17.3895 19.7628 17.4393C19.8417 17.4892 19.9056 17.5604 19.9472 17.6452L20.4472 18.6665C20.4819 18.7374 20.5 18.8156 20.5 18.8949C20.5 18.9741 20.4819 19.0523 20.4472 19.1233L19.9472 20.1445C19.9056 20.2293 19.8417 20.3005 19.7628 20.3504C19.6838 20.4002 19.5928 20.4267 19.5 20.4268H19V20.9374C19 21.0729 18.9473 21.2027 18.8535 21.2985C18.7598 21.3943 18.6326 21.4481 18.5 21.4481C18.3674 21.4481 18.2402 21.3943 18.1464 21.2985C18.0527 21.2027 18 21.0729 18 20.9374V20.4268H17.5C17.3674 20.4268 17.2402 20.373 17.1464 20.2772C17.0527 20.1815 17 20.0516 17 19.9161C17 19.7807 17.0527 19.6508 17.1464 19.5551C17.2402 19.4593 17.3674 19.4055 17.5 19.4055H19.1914L19.4414 18.8949L19.1914 18.3842H17.5C17.4072 18.3841 17.3162 18.3576 17.2372 18.3078C17.1582 18.258 17.0944 18.1867 17.0527 18.102L16.5527 17.0807C16.5181 17.0098 16.5 16.9316 16.5 16.8523C16.5 16.773 16.5181 16.6948 16.5527 16.6239L17.0527 15.6026C17.0944 15.5179 17.1582 15.4466 17.2372 15.3968C17.3162 15.3469 17.4072 15.3205 17.5 15.3203H18V14.8097C17.9999 14.7426 18.0129 14.6762 18.038 14.6142C18.0631 14.5523 18.0999 14.496 18.1464 14.4485C18.1928 14.4011 18.2479 14.3635 18.3086 14.3379C18.3693 14.3122 18.4343 14.299 18.5 14.2991ZM23.9999 14.9633V20.7838C24 20.8765 23.9753 20.9675 23.9285 21.047C23.8817 21.1264 23.8146 21.1913 23.7343 21.2346L18.7344 23.9415C18.6622 23.9807 18.5817 24.0013 18.5 24.0013C18.4182 24.0013 18.3377 23.9807 18.2656 23.9415L13.2657 21.2346C13.1854 21.1913 13.1182 21.1264 13.0714 21.047C13.0246 20.9675 12.9999 20.8766 13 20.7838V14.9633C12.9999 14.8706 13.0246 14.7796 13.0714 14.7002C13.1182 14.6207 13.1854 14.5558 13.2657 14.5125L18.2656 11.8052C18.3379 11.7664 18.4183 11.7461 18.5 11.7461C18.5816 11.7461 18.6621 11.7664 18.7344 11.8052L23.7343 14.5125C23.8146 14.5558 23.8817 14.6207 23.9285 14.7002C23.9753 14.7796 24 14.8706 23.9999 14.9633ZM23 15.2705L18.5 12.834L14 15.2705V20.4767L18.5 22.9132L23 20.4767V15.2705Z" fill-opacity="0.75" />
<path d="M10 6.12796V5.61732C10 5.48189 10.0527 5.352 10.1465 5.25624C10.2402 5.16048 10.3674 5.10668 10.5 5.10668C10.6326 5.10668 10.7598 5.16048 10.8536 5.25624C10.9473 5.352 11 5.48189 11 5.61732V6.12796C11 6.26339 10.9473 6.39328 10.8536 6.48904C10.7598 6.58481 10.6326 6.63861 10.5 6.63861C10.3674 6.63861 10.2402 6.58481 10.1465 6.48904C10.0527 6.39328 10 6.26339 10 6.12796ZM4.00007 8.42586V2.29814C4.00007 2.19525 4.03052 2.09476 4.08743 2.00987C4.14434 1.92497 4.22505 1.85962 4.31897 1.8224L8.81894 0.0351471C8.93535 -0.0117157 9.06483 -0.0117157 9.18124 0.0351471L13.6817 1.8224C13.7754 1.85983 13.8559 1.92524 13.9127 2.0101C13.9695 2.09497 14 2.19534 14 2.29814V8.42586C14 8.52865 13.9695 8.62903 13.9127 8.71389C13.856 8.79876 13.7754 8.86417 13.6817 8.9016L9.18124 10.6888C9.06477 10.7354 8.93541 10.7354 8.81894 10.6888L4.31897 8.9016C4.22505 8.86438 4.14434 8.79903 4.08743 8.71413C4.03052 8.62923 4.00007 8.52875 4.00007 8.42586ZM6.85784 1.90955L9.1182 3.0641H13V2.64717L9.00003 1.0589L6.85784 1.90955ZM5.00006 8.07679L9.00003 9.66507L13 8.07679V4.08539H9.00003C8.92241 4.0854 8.84585 4.06696 8.77641 4.03154L5.59996 2.40904L5.00006 2.64717V8.07679ZM7.50005 5.10668C7.43437 5.10664 7.36934 5.11982 7.30866 5.14547C7.24798 5.17112 7.19285 5.20873 7.14641 5.25616C7.09998 5.30358 7.06315 5.35989 7.03803 5.42186C7.01292 5.48383 7.00001 5.55025 7.00005 5.61732V6.12796C7.00005 6.26339 7.05273 6.39328 7.14649 6.48904C7.24026 6.58481 7.36744 6.63861 7.50005 6.63861C7.63265 6.63861 7.75983 6.58481 7.8536 6.48904C7.94736 6.39328 8.00004 6.26339 8.00004 6.12796V5.61732C8.00008 5.55025 7.98717 5.48383 7.96206 5.42186C7.93694 5.35989 7.90011 5.30358 7.85368 5.25616C7.80724 5.20873 7.75211 5.17112 7.69143 5.14547C7.63075 5.11982 7.56572 5.10664 7.50005 5.10668ZM14.9043 12.6257C14.8896 12.6911 14.8625 12.7529 14.8244 12.8076C14.7863 12.8623 14.738 12.9087 14.6823 12.9443C14.6266 12.9799 14.5646 13.0039 14.4998 13.0149C14.435 13.026 14.3687 13.0239 14.3047 13.0087L11.6885 12.3921L9.42435 16.1004C9.37941 16.174 9.31688 16.2346 9.24264 16.2767C9.16841 16.3187 9.08492 16.3408 9.00004 16.3408C8.91515 16.3408 8.83167 16.3187 8.75743 16.2767C8.6832 16.2346 8.62067 16.174 8.57573 16.1004L6.31158 12.3921L2.89998 13.1962L1.16317 19.4047H11.5C11.6326 19.4047 11.7598 19.4585 11.8536 19.5543C11.9473 19.65 12 19.7799 12 19.9153C12 20.0508 11.9473 20.1807 11.8536 20.2764C11.7598 20.3722 11.6326 20.426 11.5 20.426H0.500095C0.422676 20.426 0.346319 20.4076 0.277033 20.3723C0.207746 20.337 0.147421 20.2858 0.100803 20.2227C0.0541851 20.1596 0.022547 20.0862 0.00837814 20.0085C-0.00579072 19.9308 -0.00210378 19.8508 0.0191488 19.7747L2.01913 12.6257C2.04384 12.538 2.09105 12.4587 2.15586 12.3959C2.22068 12.3332 2.30075 12.2892 2.38778 12.2687L8.88774 10.7367C8.96169 10.7198 9.03839 10.7198 9.11234 10.7367L14.5293 12.0133C14.6585 12.0438 14.7705 12.1255 14.8409 12.2403C14.9112 12.3551 14.934 12.4937 14.9043 12.6257ZM10.6581 12.1493L9.00003 11.7585L7.34195 12.1493L9.00003 14.8648L10.6581 12.1493Z" fill="#A6A6A6" />
</g>
<defs>
<clipPath id="clip0_9201_27268">
<rect width="24" height="24.0005" fill="white"/>
</clipPath>
</defs>
</svg>
