<svg width="30" height="27" viewBox="0 0 30 27" fill="none" stroke="white" xmlns="http://www.w3.org/2000/svg">
<path d="M9.17133 9.72618C9.33844 8.2322 9.85254 6.79799 10.6726 5.53805C11.4926 4.27811 12.5959 3.22735 13.8942 2.46966C15.1926 1.71197 16.6502 1.26835 18.1505 1.1742C19.6509 1.08006 21.1524 1.338 22.5354 1.92744C23.9183 2.51688 25.1442 3.42149 26.1153 4.56904C27.0864 5.71658 27.7758 7.07528 28.1283 8.53665C28.4809 9.99802 28.4869 11.5216 28.1459 12.9857C27.8048 14.4498 27.1262 15.8139 26.1642 16.969" stroke-width="2" stroke-linecap="round" stroke-linejoin="round"/>
<path d="M18.7499 6.5119V10.7976H21.9642" stroke-width="2" stroke-linecap="round" stroke-linejoin="round"/>
<path d="M1.60706 15.0833H10.1785C10.882 15.0833 11.5786 15.2219 12.2286 15.4911C12.8785 15.7603 13.4691 16.1549 13.9666 16.6524C14.464 17.1498 14.8586 17.7404 15.1278 18.3904C15.3971 19.0403 15.5356 19.737 15.5356 20.4405V20.4405" stroke-width="2" stroke-linecap="round" stroke-linejoin="round"/>
<path d="M9.10706 20.4404H19.8213C20.958 20.4404 22.0481 20.892 22.8518 21.6957C23.6555 22.4994 24.1071 23.5895 24.1071 24.7261C24.1071 25.0103 23.9942 25.2828 23.7932 25.4838C23.5923 25.6847 23.3198 25.7976 23.0356 25.7976H1.60706" stroke-width="2" stroke-linecap="round" stroke-linejoin="round"/>
</svg>
