<svg width="24" height="25" viewBox="0 0 24 25" fill="#A6A6A6" xmlns="http://www.w3.org/2000/svg">
<g>
<path d="M17.5 24.0004C17.4343 24.0005 17.3693 23.9876 17.3086 23.9625C17.2479 23.9373 17.1928 23.9005 17.1464 23.8541C17.0999 23.8076 17.0631 23.7525 17.038 23.6918C17.0129 23.6312 17 23.5661 17 23.5004V20.5014C17 20.3688 17.0527 20.2417 17.1464 20.1479C17.2402 20.0541 17.3674 20.0014 17.5 20.0014C17.6326 20.0014 17.7598 20.0541 17.8536 20.1479C17.9473 20.2417 18 20.3688 18 20.5014V23.5004C18 23.5661 17.9871 23.6312 17.962 23.6918C17.9369 23.7525 17.9001 23.8076 17.8536 23.8541C17.8072 23.9005 17.7521 23.9373 17.6914 23.9625C17.6307 23.9876 17.5657 24.0005 17.5 24.0004ZM6.5 24.0004C6.43433 24.0005 6.36929 23.9876 6.30861 23.9625C6.24793 23.9373 6.1928 23.9005 6.14636 23.8541C6.09992 23.8076 6.0631 23.7525 6.03798 23.6918C6.01287 23.6312 5.99996 23.5661 6 23.5004V20.5014C6 20.3688 6.05268 20.2417 6.14645 20.1479C6.24021 20.0541 6.36739 20.0014 6.5 20.0014C6.63261 20.0014 6.75979 20.0541 6.85355 20.1479C6.94732 20.2417 7 20.3688 7 20.5014V23.5004C7.00004 23.5661 6.98713 23.6312 6.96201 23.6918C6.9369 23.7525 6.90007 23.8076 6.85364 23.8541C6.8072 23.9005 6.75206 23.9373 6.69139 23.9625C6.63071 23.9876 6.56567 24.0005 6.5 24.0004ZM19.5 23.0004C19.4343 23.0005 19.3693 22.9876 19.3086 22.9625C19.2479 22.9373 19.1928 22.9005 19.1464 22.8541C19.0999 22.8076 19.0631 22.7525 19.038 22.6918C19.0129 22.6312 19 22.5661 19 22.5004V20.5014C19 20.3688 19.0527 20.2417 19.1464 20.1479C19.2402 20.0541 19.3674 20.0014 19.5 20.0014C19.6326 20.0014 19.7598 20.0541 19.8536 20.1479C19.9473 20.2417 20 20.3688 20 20.5014V22.5004C20 22.5661 19.9871 22.6312 19.962 22.6918C19.9369 22.7525 19.9001 22.8076 19.8536 22.8541C19.8072 22.9005 19.7521 22.9373 19.6914 22.9625C19.6307 22.9876 19.5657 23.0005 19.5 23.0004ZM15.5 23.0004C15.4343 23.0005 15.3693 22.9876 15.3086 22.9625C15.2479 22.9373 15.1928 22.9005 15.1464 22.8541C15.0999 22.8076 15.0631 22.7525 15.038 22.6918C15.0129 22.6312 15 22.5661 15 22.5004V20.5014C15 20.3688 15.0527 20.2417 15.1464 20.1479C15.2402 20.0541 15.3674 20.0014 15.5 20.0014C15.6326 20.0014 15.7598 20.0541 15.8536 20.1479C15.9473 20.2417 16 20.3688 16 20.5014V22.5004C16 22.5661 15.9871 22.6312 15.962 22.6918C15.9369 22.7525 15.9001 22.8076 15.8536 22.8541C15.8072 22.9005 15.7521 22.9373 15.6914 22.9625C15.6307 22.9876 15.5657 23.0005 15.5 23.0004ZM8.5 23.0004C8.43433 23.0005 8.36929 22.9876 8.30861 22.9625C8.24793 22.9373 8.1928 22.9005 8.14636 22.8541C8.09992 22.8076 8.0631 22.7525 8.03798 22.6918C8.01287 22.6312 7.99996 22.5661 8 22.5004V20.5014C8 20.3688 8.05268 20.2417 8.14645 20.1479C8.24021 20.0541 8.36739 20.0014 8.5 20.0014C8.63261 20.0014 8.75979 20.0541 8.85355 20.1479C8.94732 20.2417 9 20.3688 9 20.5014V22.5004C9.00004 22.5661 8.98713 22.6312 8.96202 22.6918C8.9369 22.7525 8.90007 22.8076 8.85364 22.8541C8.8072 22.9005 8.75206 22.9373 8.69139 22.9625C8.63071 22.9876 8.56567 23.0005 8.5 23.0004ZM4.5 23.0004C4.43433 23.0005 4.36929 22.9876 4.30861 22.9625C4.24793 22.9373 4.1928 22.9005 4.14636 22.8541C4.09992 22.8076 4.0631 22.7525 4.03798 22.6918C4.01287 22.6312 3.99996 22.5661 4 22.5004V20.5014C4 20.3688 4.05268 20.2417 4.14645 20.1479C4.24021 20.0541 4.36739 20.0014 4.5 20.0014C4.63261 20.0014 4.75979 20.0541 4.85355 20.1479C4.94732 20.2417 5 20.3688 5 20.5014V22.5004C5.00004 22.5661 4.98713 22.6312 4.96201 22.6918C4.9369 22.7525 4.90007 22.8076 4.85364 22.8541C4.8072 22.9005 4.75206 22.9373 4.69139 22.9625C4.63071 22.9876 4.56567 23.0005 4.5 23.0004ZM19.5 19.0014H15.5C15.4343 19.0015 15.3693 18.9886 15.3086 18.9635C15.2479 18.9383 15.1928 18.9015 15.1464 18.8551C15.0999 18.8086 15.0631 18.7535 15.038 18.6928C15.0129 18.6322 15 18.5671 15 18.5014V18.0014H13.6514L12.2774 18.9174C12.1951 18.9719 12.0987 19.0009 12 19.0009C11.9014 19.0009 11.8049 18.9719 11.7227 18.9174L10.3487 18.0014H9V18.5014C9.00004 18.5671 8.98713 18.6322 8.96202 18.6928C8.9369 18.7535 8.90007 18.8086 8.85364 18.8551C8.8072 18.9015 8.75206 18.9383 8.69139 18.9635C8.63071 18.9886 8.56567 19.0015 8.5 19.0014H4.5C4.43433 19.0015 4.36929 18.9886 4.30861 18.9635C4.24793 18.9383 4.1928 18.9015 4.14636 18.8551C4.09992 18.8086 4.0631 18.7535 4.03798 18.6928C4.01287 18.6322 3.99996 18.5671 4 18.5014V15.5014C3.99996 15.4358 4.01287 15.3707 4.03798 15.3101C4.0631 15.2494 4.09992 15.1942 4.14636 15.1478C4.1928 15.1014 4.24793 15.0645 4.30861 15.0394C4.36929 15.0143 4.43433 15.0014 4.5 15.0014H8.5C8.56567 15.0014 8.63071 15.0143 8.69139 15.0394C8.75206 15.0645 8.8072 15.1014 8.85364 15.1478C8.90007 15.1942 8.9369 15.2494 8.96202 15.3101C8.98713 15.3707 9.00004 15.4358 9 15.5014V17.0014H10.5C10.5987 17.0015 10.6952 17.0307 10.7773 17.0854L12 17.9009L13.2226 17.0854C13.3048 17.0307 13.4013 17.0015 13.5 17.0014H15V15.5014C15 15.4358 15.0129 15.3707 15.038 15.3101C15.0631 15.2494 15.0999 15.1942 15.1464 15.1478C15.1928 15.1014 15.2479 15.0645 15.3086 15.0394C15.3693 15.0143 15.4343 15.0014 15.5 15.0014H19.5C19.5657 15.0014 19.6307 15.0143 19.6914 15.0394C19.7521 15.0645 19.8072 15.1014 19.8536 15.1478C19.9001 15.1942 19.9369 15.2494 19.962 15.3101C19.9871 15.3707 20 15.4358 20 15.5014V18.5014C20 18.5671 19.9871 18.6322 19.962 18.6928C19.9369 18.7535 19.9001 18.8086 19.8536 18.8551C19.8072 18.9015 19.7521 18.9383 19.6914 18.9635C19.6307 18.9886 19.5657 19.0015 19.5 19.0014ZM16 18.0014H19V16.0014H18V16.5014C18 16.6341 17.9473 16.7612 17.8536 16.855C17.7598 16.9488 17.6326 17.0014 17.5 17.0014C17.3674 17.0014 17.2402 16.9488 17.1464 16.855C17.0527 16.7612 17 16.6341 17 16.5014V16.0014H16V18.0014ZM5 18.0014H8V16.0014H7V16.5014C7 16.6341 6.94732 16.7612 6.85355 16.855C6.75979 16.9488 6.63261 17.0014 6.5 17.0014C6.36739 17.0014 6.24021 16.9488 6.14645 16.855C6.05268 16.7612 6 16.6341 6 16.5014V16.0014H5V18.0014ZM12 4.50044C11.9224 4.50047 11.8458 4.48241 11.7764 4.44771L9.70266 3.41111C9.58436 3.35161 9.49449 3.24762 9.45277 3.12195C9.41105 2.99627 9.42087 2.85918 9.48009 2.74074C9.53931 2.62231 9.64309 2.53219 9.76866 2.49017C9.89424 2.44815 10.0314 2.45764 10.1499 2.51658L12 3.44138L13.8506 2.51658C13.9093 2.48703 13.9733 2.46936 14.0389 2.46458C14.1045 2.4598 14.1704 2.46801 14.2328 2.48873C14.2953 2.50945 14.353 2.54229 14.4027 2.58535C14.4524 2.62841 14.4931 2.68086 14.5225 2.73968C14.552 2.79851 14.5695 2.86256 14.5741 2.92816C14.5787 2.99377 14.5704 3.05964 14.5495 3.12201C14.5286 3.18438 14.4956 3.24202 14.4525 3.29163C14.4093 3.34124 14.3567 3.38184 14.2978 3.41111L12.2237 4.44773C12.1542 4.48243 12.0776 4.50048 12 4.50044Z" fill-opacity="0.75" />
<path d="M19.5 18.0025C19.3674 18.0025 19.2402 17.9498 19.1464 17.856C19.0527 17.7622 19 17.6351 19 17.5025C19 17.3699 19.0527 17.2427 19.1464 17.1489C19.2402 17.0551 19.3674 17.0025 19.5 17.0025L22.8067 17.0015L22.5684 16.2876L14.17 8.87597L14.1612 8.86767C14.1612 8.86817 14.1602 8.87451 14.1602 8.86667L14.1592 8.86619C14.1145 8.82528 14.0781 8.77622 14.0518 8.72165L14.0508 8.72118C14.023 8.66415 14.0065 8.60233 14.002 8.53906L13.5186 2.26562L12 1.12646L10.481 2.26562L9.99856 8.53906C9.9939 8.59983 9.97818 8.65924 9.95217 8.71435L9.95169 8.71535C9.92258 8.77625 9.88157 8.83071 9.83108 8.8755L1.43167 16.2876L1.19387 17.0015L4.5 17.0025C4.63261 17.0025 4.75979 17.0551 4.85355 17.1489C4.94732 17.2427 5 17.3699 5 17.5025C5 17.6351 4.94732 17.7622 4.85355 17.856C4.75979 17.9498 4.63261 18.0025 4.5 18.0025L0.500001 18.0015C0.420776 18.0015 0.342689 17.9826 0.272176 17.9465C0.201662 17.9104 0.140742 17.858 0.0944365 17.7937C0.0481308 17.7295 0.0177659 17.6551 0.00584474 17.5768C-0.00607643 17.4984 0.000787508 17.4184 0.0258708 17.3433L0.525871 15.8433C0.553643 15.7596 0.60302 15.6849 0.669001 15.6265L9.01712 8.25976L9.50149 1.96534L9.502 1.95556V1.95507L9.50249 1.95458C9.50882 1.88516 9.5297 1.81784 9.56377 1.75702C9.59784 1.6962 9.64434 1.64324 9.70024 1.60158L11.6914 0.107915C11.7795 0.0391866 11.8879 0.00173248 11.9995 0.00146493H12.0005C12.074 0.00142158 12.1465 0.0175933 12.213 0.0488249C12.2471 0.0647133 12.2792 0.0845454 12.3087 0.107915L14.2979 1.5996L14.3116 1.61036L14.3126 1.61084C14.3632 1.65199 14.4057 1.70235 14.4376 1.75927C14.4709 1.81957 14.4915 1.88604 14.4981 1.95458V1.95559L14.4991 1.96535L14.9835 8.25978L23.3312 15.6265C23.3969 15.6851 23.4464 15.7598 23.4747 15.8433L23.9747 17.3433C23.9996 17.4185 24.0062 17.4985 23.9942 17.5768C23.9821 17.655 23.9517 17.7293 23.9053 17.7935C23.859 17.8578 23.7981 17.9101 23.7277 17.9462C23.6572 17.9824 23.5792 18.0013 23.5 18.0015L19.5 18.0025Z" />
</g>
<defs>
</defs>
</svg>
