<svg width="24" height="25" viewBox="0 0 24 25" fill="#A6A6A6" xmlns="http://www.w3.org/2000/svg">
<g clip-path="url(#clip0)">
<path d="M19.3043 24.998H0.521739C0.453212 24.998 0.38535 24.9845 0.322031 24.9583C0.258713 24.9321 0.201181 24.8937 0.152725 24.8452C0.104269 24.7968 0.0658398 24.7393 0.0396341 24.6759C0.0134283 24.6126 -3.96924e-05 24.5448 8.78665e-08 24.4762V5.69323C-3.96924e-05 5.6247 0.0134283 5.55684 0.0396341 5.49352C0.0658398 5.4302 0.104269 5.37266 0.152725 5.32421C0.201181 5.27575 0.258713 5.23732 0.322031 5.21111C0.38535 5.18491 0.453212 5.17144 0.521739 5.17148H3.65217C3.79055 5.17148 3.92325 5.22645 4.0211 5.3243C4.11894 5.42214 4.17391 5.55485 4.17391 5.69323C4.17391 5.8316 4.11894 5.96431 4.0211 6.06216C3.92325 6.16001 3.79055 6.21498 3.65217 6.21498H1.04348V23.9545H18.7826V21.3457C18.7826 21.2073 18.8376 21.0746 18.9354 20.9768C19.0333 20.8789 19.166 20.824 19.3043 20.824C19.4427 20.824 19.5754 20.8789 19.6733 20.9768C19.7711 21.0746 19.8261 21.2073 19.8261 21.3457V24.4762C19.8261 24.5448 19.8127 24.6126 19.7865 24.6759C19.7602 24.7393 19.7218 24.7968 19.6734 24.8452C19.6249 24.8937 19.5674 24.9321 19.5041 24.9583C19.4407 24.9845 19.3729 24.998 19.3043 24.998Z"/>
<path d="M23.4783 21.8675H3.65218C3.58365 21.8676 3.51579 21.8541 3.45247 21.8279C3.38915 21.8017 3.33162 21.7633 3.28316 21.7148C3.23471 21.6664 3.19628 21.6088 3.17007 21.5455C3.14386 21.4822 3.1304 21.4143 3.13044 21.3458V1.51931C3.1304 1.45078 3.14386 1.38292 3.17007 1.3196C3.19628 1.25628 3.23471 1.19874 3.28316 1.15029C3.33162 1.10183 3.38915 1.0634 3.45247 1.03719C3.51579 1.01099 3.58365 0.997519 3.65218 0.997559H23.4783C23.5468 0.997519 23.6147 1.01099 23.678 1.03719C23.7413 1.0634 23.7988 1.10183 23.8473 1.15029C23.8957 1.19874 23.9342 1.25628 23.9604 1.3196C23.9866 1.38292 24 1.45078 24 1.51931V21.3458C24 21.4143 23.9866 21.4822 23.9604 21.5455C23.9342 21.6088 23.8957 21.6664 23.8473 21.7148C23.7988 21.7633 23.7413 21.8017 23.678 21.8279C23.6147 21.8541 23.5468 21.8676 23.4783 21.8675ZM4.17391 20.824H22.9565V2.04106H4.17391V20.824ZM14.087 16.6501H6.78261C6.64424 16.6501 6.51153 16.5951 6.41368 16.4972C6.31584 16.3994 6.26087 16.2667 6.26087 16.1283C6.26087 15.9899 6.31584 15.8572 6.41368 15.7594C6.51153 15.6615 6.64424 15.6066 6.78261 15.6066H14.087C14.2253 15.6066 14.358 15.6615 14.4559 15.7594C14.5537 15.8572 14.6087 15.9899 14.6087 16.1283C14.6087 16.2667 14.5537 16.3994 14.4559 16.4972C14.358 16.5951 14.2253 16.6501 14.087 16.6501ZM20.3478 13.5196H6.78261C6.64424 13.5196 6.51153 13.4646 6.41368 13.3667C6.31584 13.2689 6.26087 13.1362 6.26087 12.9978C6.26087 12.8594 6.31584 12.7267 6.41368 12.6289C6.51153 12.531 6.64424 12.4761 6.78261 12.4761H20.3478C20.4862 12.4761 20.6189 12.531 20.7168 12.6289C20.8146 12.7267 20.8696 12.8594 20.8696 12.9978C20.8696 13.1362 20.8146 13.2689 20.7168 13.3667C20.6189 13.4646 20.4862 13.5196 20.3478 13.5196ZM20.3478 10.3891H6.78261C6.64424 10.3891 6.51153 10.3341 6.41368 10.2362C6.31584 10.1384 6.26087 10.0057 6.26087 9.8673C6.26087 9.72893 6.31584 9.59622 6.41368 9.49837C6.51153 9.40052 6.64424 9.34555 6.78261 9.34555H20.3478C20.4862 9.34555 20.6189 9.40052 20.7168 9.49837C20.8146 9.59622 20.8696 9.72893 20.8696 9.8673C20.8696 10.0057 20.8146 10.1384 20.7168 10.2362C20.6189 10.3341 20.4862 10.3891 20.3478 10.3891ZM20.3478 7.25856H6.78261C6.64424 7.25856 6.51153 7.20359 6.41368 7.10574C6.31584 7.00789 6.26087 6.87518 6.26087 6.73681C6.26087 6.59843 6.31584 6.46572 6.41368 6.36787C6.51153 6.27003 6.64424 6.21506 6.78261 6.21506H20.3478C20.4862 6.21506 20.6189 6.27003 20.7168 6.36787C20.8146 6.46572 20.8696 6.59843 20.8696 6.73681C20.8696 6.87518 20.8146 7.00789 20.7168 7.10574C20.6189 7.20359 20.4862 7.25856 20.3478 7.25856Z" fill-opacity="0.75"/>
</g>
<defs>
<clipPath id="clip0">
<rect width="24" height="24.0005" fill="white" transform="translate(0 0.998047)"/>
</clipPath>
</defs>
</svg>
