<svg width="10" height="11" viewBox="0 0 10 11" fill="#808080" xmlns="http://www.w3.org/2000/svg">
<g>
<path fill-rule="evenodd" clip-rule="evenodd" d="M9.99979 5.99609C9.99979 5.82734 9.85988 5.69054 9.68729 5.69054H0.312484C0.139899 5.69054 -9.53674e-06 5.82734 -9.53674e-06 5.99609C-9.53674e-06 6.16485 0.139899 6.30165 0.312484 6.30165H9.68729C9.85988 6.30165 9.99979 6.16485 9.99979 5.99609Z" />
<path fill-rule="evenodd" clip-rule="evenodd" d="M4.90837 1.50226C4.78633 1.38293 4.58847 1.38293 4.46643 1.50226L0.0915227 5.78003C-0.0305138 5.89936 -0.0305138 6.09283 0.0915227 6.21215L4.46643 10.4899C4.58847 10.6093 4.78633 10.6093 4.90837 10.4899C5.0304 10.3706 5.0304 10.1771 4.90837 10.0578L0.754421 5.99609L4.90837 1.93438C5.0304 1.81505 5.0304 1.62158 4.90837 1.50226Z" />
</g>
</svg>
