<svg width="15" height="16" viewBox="0 0 15 16" fill="none" xmlns="http://www.w3.org/2000/svg">
<g clip-path="url(#clip0)">
<path d="M7.33333 4.17379H7.3439C7.38599 4.17517 7.42747 4.18415 7.46633 4.20028C7.50545 4.21598 7.5413 4.23878 7.57205 4.26754L7.57239 4.26823L7.57309 4.26893L7.58127 4.2764L10.3739 7.05822C10.4383 7.12367 10.4742 7.21177 10.4737 7.3034C10.4732 7.39503 10.4365 7.48277 10.3714 7.54756C10.3064 7.61235 10.2183 7.64896 10.1263 7.64942C10.0343 7.64988 9.94583 7.61417 9.88013 7.55003L7.68254 5.36125L7.68254 11.4782C7.68254 11.5705 7.64575 11.659 7.58026 11.7242C7.51477 11.7894 7.42595 11.8261 7.33333 11.8261C7.24072 11.8261 7.15189 11.7894 7.0864 11.7242C7.02092 11.659 6.98412 11.5705 6.98412 11.4782L6.98412 5.36125L4.78658 7.55004C4.72088 7.61417 4.63242 7.64989 4.54042 7.64943C4.44843 7.64896 4.36034 7.61236 4.29529 7.54757C4.23024 7.48278 4.19348 7.39503 4.19302 7.30341C4.19256 7.21178 4.22841 7.12367 4.2928 7.05823L7.08544 4.27641L7.09362 4.26893L7.09432 4.26824L7.09466 4.26754C7.12541 4.23879 7.16126 4.21598 7.20038 4.20029C7.23924 4.18415 7.28072 4.17518 7.32281 4.1738H7.33333V4.17379Z" fill="#808080"/>
<path d="M7.33332 1.52588e-05C7.39209 -2.86102e-05 7.44991 0.0146894 7.50144 0.0428104L14.4856 3.86878C14.5404 3.89877 14.5862 3.94292 14.6181 3.99658C14.6499 4.05024 14.6667 4.11145 14.6667 4.1738L14.6667 11.8261C14.6667 11.8884 14.6499 11.9495 14.618 12.0031C14.5861 12.0567 14.5404 12.1008 14.4856 12.1308L7.50144 15.9567C7.45 15.9851 7.39214 16 7.33332 16C7.2745 16 7.21665 15.9851 7.1652 15.9567L0.180731 12.1308C0.126036 12.1007 0.0804281 12.0565 0.0486441 12.003C0.01686 11.9494 5.91278e-05 11.8883 -1.04904e-05 11.8261L-1.04904e-05 4.1738C1.62125e-05 4.11151 0.0167942 4.05037 0.0485802 3.99673C0.0803652 3.94309 0.125998 3.8989 0.180731 3.86878L7.1652 0.0428104C7.21674 0.0146894 7.27456 -2.86102e-05 7.33332 1.52588e-05ZM13.9682 4.37963L7.33332 0.744556L0.698402 4.37963L0.698402 11.6206L7.33332 15.255L13.9682 11.6206L13.9682 4.37963Z" fill="#A6A6A6"/>
</g>
<defs>
<clipPath id="clip0">
<rect width="14.6667" height="16" fill="white"/>
</clipPath>
</defs>
</svg>
