<svg width="24" height="24" viewBox="0 0 24 24" fill="#DB3A34" xmlns="http://www.w3.org/2000/svg">
<path d="M19.8569 24H4.14277C4.07398 24 4.00584 23.9866 3.94228 23.9604C3.87871 23.9342 3.82095 23.8957 3.7723 23.8473C3.72365 23.7988 3.68507 23.7413 3.65876 23.678C3.63245 23.6147 3.61893 23.5468 3.61897 23.4783V6.26074H1.52375C1.43448 6.26069 1.34669 6.23794 1.26873 6.19462C1.19076 6.1513 1.1252 6.08886 1.07827 6.01322C1.03133 5.93758 1.00457 5.85126 1.00054 5.76243C0.996499 5.6736 1.01531 5.58521 1.0552 5.50566L2.62661 2.37529C2.67014 2.28864 2.73703 2.21577 2.81978 2.16484C2.90253 2.11391 2.99789 2.08692 3.09516 2.08691H8.00942L8.91227 0.28838C8.9558 0.20173 9.02269 0.128858 9.10544 0.0779262C9.18819 0.026994 9.28355 1.15063e-05 9.38083 0L14.6189 0C14.7162 9.56929e-06 14.8115 0.0269912 14.8943 0.0779235C14.977 0.128856 15.0439 0.201728 15.0874 0.28838L15.9898 2.08691H20.9045C21.0018 2.08692 21.0972 2.1139 21.1799 2.16484C21.2627 2.21577 21.3296 2.28864 21.3731 2.37529L22.9445 5.50566C22.9845 5.5852 23.0035 5.67362 22.9995 5.7625C22.9955 5.85138 22.9688 5.93777 22.9218 6.01345C22.8748 6.08913 22.8092 6.15158 22.7312 6.19487C22.6531 6.23815 22.5653 6.26083 22.476 6.26074H20.3807V23.4783C20.3808 23.5468 20.3673 23.6147 20.3409 23.678C20.3146 23.7413 20.276 23.7988 20.2274 23.8473C20.1788 23.8957 20.121 23.9342 20.0574 23.9604C19.9939 23.9866 19.9257 24 19.8569 24ZM4.66658 22.9565H19.3331V6.26074H4.66658V22.9565ZM19.8569 5.21728H21.6289L20.5813 3.13037H3.41896L2.37135 5.21728H19.8569ZM9.18081 2.08691H14.8194L14.2956 1.04346H9.70462L9.18081 2.08691Z" fill-opacity="1"/>
<path d="M16.5136 20.83C16.5772 20.8562 16.6453 20.8697 16.7141 20.8696C16.7829 20.8697 16.8511 20.8562 16.9146 20.83C16.9782 20.8038 17.036 20.7654 17.0846 20.7169C17.1333 20.6685 17.1718 20.6109 17.1982 20.5476C17.2245 20.4843 17.238 20.4164 17.2379 20.3479V8.86938C17.2379 8.73101 17.1828 8.59831 17.0845 8.50047C16.9863 8.40262 16.8531 8.34766 16.7141 8.34766C16.5752 8.34766 16.442 8.40262 16.3438 8.50047C16.2455 8.59831 16.1903 8.73101 16.1903 8.86938V20.3479C16.1903 20.4164 16.2038 20.4843 16.2301 20.5476C16.2564 20.6109 16.295 20.6685 16.3437 20.7169C16.3923 20.7654 16.4501 20.8038 16.5136 20.83Z" fill-opacity="1"/>
<path d="M13.3708 20.83C13.4344 20.8562 13.5025 20.8697 13.5713 20.8696C13.6401 20.8697 13.7082 20.8562 13.7718 20.83C13.8354 20.8038 13.8931 20.7654 13.9418 20.7169C13.9904 20.6685 14.029 20.6109 14.0553 20.5476C14.0816 20.4843 14.0952 20.4164 14.0951 20.3479V8.86938C14.0951 8.73101 14.0399 8.59831 13.9417 8.50047C13.8435 8.40262 13.7102 8.34766 13.5713 8.34766C13.4324 8.34766 13.2992 8.40262 13.2009 8.50047C13.1027 8.59831 13.0475 8.73101 13.0475 8.86938V20.3479C13.0475 20.4164 13.061 20.4843 13.0873 20.5476C13.1136 20.6109 13.1522 20.6685 13.2008 20.7169C13.2495 20.7654 13.3072 20.8038 13.3708 20.83Z" fill-opacity="1"/>
<path d="M10.228 20.83C10.2915 20.8562 10.3597 20.8697 10.4285 20.8696C10.4973 20.8697 10.5654 20.8562 10.629 20.83C10.6925 20.8038 10.7503 20.7654 10.799 20.7169C10.8476 20.6685 10.8862 20.6109 10.9125 20.5476C10.9388 20.4843 10.9523 20.4164 10.9523 20.3479V8.86938C10.9523 8.73101 10.8971 8.59831 10.7989 8.50047C10.7006 8.40262 10.5674 8.34766 10.4285 8.34766C10.2896 8.34766 10.1563 8.40262 10.0581 8.50047C9.95986 8.59831 9.90467 8.73101 9.90467 8.86938V20.3479C9.90463 20.4164 9.91815 20.4843 9.94446 20.5476C9.97077 20.6109 10.0094 20.6685 10.058 20.7169C10.1066 20.7654 10.1644 20.8038 10.228 20.83Z" fill-opacity="1"/>
<path d="M7.08515 20.83C7.14872 20.8562 7.21685 20.8697 7.28565 20.8696C7.35444 20.8697 7.42258 20.8562 7.48614 20.83C7.54971 20.8038 7.60747 20.7654 7.65612 20.7169C7.70477 20.6685 7.74335 20.6109 7.76966 20.5476C7.79597 20.4843 7.80949 20.4164 7.80945 20.3479V8.86938C7.80945 8.73101 7.75426 8.59831 7.65603 8.50047C7.5578 8.40262 7.42457 8.34766 7.28565 8.34766C7.14672 8.34766 7.01349 8.40262 6.91526 8.50047C6.81703 8.59831 6.76184 8.73101 6.76184 8.86938V20.3479C6.7618 20.4164 6.77532 20.4843 6.80163 20.5476C6.82794 20.6109 6.86652 20.6685 6.91517 20.7169C6.96382 20.7654 7.02158 20.8038 7.08515 20.83Z" fill-opacity="1"/>
</svg>
