<svg width="18" height="18" viewBox="0 0 18 18" fill="none" xmlns="http://www.w3.org/2000/svg">
<circle cx="9" cy="9" r="6.75" stroke="#FB6107" stroke-linecap="round" stroke-linejoin="round"/>
<path d="M7.85355 7.14645C7.65829 6.95118 7.34171 6.95118 7.14645 7.14645C6.95118 7.34171 6.95118 7.65829 7.14645 7.85355L7.85355 7.14645ZM10.1464 10.8536C10.3417 11.0488 10.6583 11.0488 10.8536 10.8536C11.0488 10.6583 11.0488 10.3417 10.8536 10.1464L10.1464 10.8536ZM10.8536 7.85355C11.0488 7.65829 11.0488 7.34171 10.8536 7.14645C10.6583 6.95118 10.3417 6.95118 10.1464 7.14645L10.8536 7.85355ZM7.14645 10.1464C6.95118 10.3417 6.95118 10.6583 7.14645 10.8536C7.34171 11.0488 7.65829 11.0488 7.85355 10.8536L7.14645 10.1464ZM7.14645 7.85355L10.1464 10.8536L10.8536 10.1464L7.85355 7.14645L7.14645 7.85355ZM10.1464 7.14645L7.14645 10.1464L7.85355 10.8536L10.8536 7.85355L10.1464 7.14645Z" fill="#FB6107"/>
</svg>
