<svg width="24" height="24" viewBox="0 0 24 24" fill="none" xmlns="http://www.w3.org/2000/svg">
<path d="M14.0062 22.7812H9.99839C9.9937 22.7812 9.98901 22.7812 9.98433 22.7812C9.38433 22.7719 8.88276 22.3547 8.76089 21.7687C8.7562 21.7547 8.7562 21.7359 8.75151 21.7219L8.43745 19.4813H8.43276C8.04839 19.2938 7.67339 19.0781 7.32183 18.8297L5.21714 19.6781C5.21245 19.6781 5.20776 19.6828 5.20308 19.6828C4.6312 19.8984 3.98901 19.6781 3.67495 19.1484C3.67495 19.1437 3.67026 19.1437 3.67026 19.1391L1.66401 15.6703C1.35464 15.1406 1.47651 14.4656 1.94995 14.0719C1.95464 14.0672 1.95933 14.0625 1.96401 14.0578L3.75464 12.6516L3.74995 12.6469C3.7312 12.4125 3.72183 12.2016 3.72183 11.9953C3.72183 11.7844 3.7312 11.5734 3.74995 11.3484L1.9687 9.95156C1.95933 9.94688 1.95464 9.94219 1.94995 9.93281C1.48589 9.53906 1.3687 8.86875 1.67339 8.34375L3.67964 4.875C3.67964 4.87031 3.68433 4.87031 3.68433 4.86563C3.99839 4.34063 4.64058 4.11563 5.21245 4.33125C5.21714 4.33125 5.22183 4.33594 5.22651 4.33594L7.3312 5.18437C7.68745 4.94062 8.05776 4.725 8.44214 4.5375L8.7562 2.29219C8.7562 2.28281 8.76089 2.27344 8.76089 2.26875C8.85933 1.67344 9.37495 1.23281 9.97964 1.21875C9.98433 1.21875 9.98901 1.21875 9.9937 1.21875H14.0015C14.0062 1.21875 14.0109 1.21875 14.0156 1.21875C14.6156 1.22813 15.1171 1.64531 15.239 2.23125C15.2437 2.24531 15.2437 2.26406 15.2484 2.27812L15.5625 4.51875H15.5671C15.9515 4.70625 16.3265 4.92188 16.6781 5.17031L18.7828 4.32187C18.7875 4.32187 18.7921 4.31719 18.7968 4.31719C19.3687 4.09687 20.0109 4.32188 20.325 4.85156C20.325 4.85625 20.3296 4.85625 20.3296 4.86094L22.3359 8.32969C22.6453 8.85938 22.5234 9.53438 22.05 9.92813C22.0453 9.93281 22.0406 9.9375 22.0359 9.94219L20.2453 11.3484C20.2453 11.3531 20.2453 11.3578 20.2453 11.3578C20.264 11.5969 20.2734 11.8078 20.2734 12V12.0047C20.2734 12.2156 20.264 12.4313 20.2453 12.6422L22.0359 14.0438C22.0406 14.0484 22.0453 14.0531 22.05 14.0578C22.5234 14.4516 22.6453 15.1219 22.3359 15.6562L20.3296 19.125C20.3296 19.1297 20.325 19.1297 20.325 19.1344C20.0109 19.6594 19.3687 19.8844 18.7968 19.6688C18.7921 19.6688 18.7875 19.6641 18.7828 19.6641L16.6781 18.8156C16.3218 19.0594 15.9515 19.275 15.5671 19.4625L15.2531 21.7078C15.2531 21.7172 15.2484 21.7266 15.2484 21.7313C15.1453 22.3266 14.6296 22.7672 14.025 22.7812C14.0156 22.7812 14.0109 22.7812 14.0062 22.7812ZM10.2046 21.2812H13.7953L14.0812 19.2516C14.1515 18.7594 14.4609 18.3328 14.9109 18.1125C15.2296 17.9578 15.5343 17.7797 15.825 17.5828C16.2375 17.2969 16.7671 17.2359 17.2406 17.4234L19.1437 18.1875L20.9343 15.0891L18.9843 13.5656C18.7734 13.4016 18.6656 13.1344 18.7031 12.8719C18.7453 12.5859 18.764 12.2906 18.7687 12C18.7687 11.8453 18.7593 11.6766 18.7453 11.4797C18.6984 10.9734 18.914 10.4812 19.3125 10.1672L20.9296 8.89688L19.139 5.79844L17.2359 6.5625C16.7671 6.75 16.2375 6.69375 15.8203 6.40313C15.5343 6.20156 15.2296 6.02344 14.9156 5.87344C14.4656 5.65781 14.1515 5.23125 14.0765 4.73438L13.7953 2.71875H10.2046L9.9187 4.74844C9.84839 5.24063 9.53901 5.66719 9.08901 5.8875C8.77026 6.04219 8.46558 6.22031 8.17495 6.41719C7.76245 6.70312 7.23276 6.76406 6.75933 6.57656L4.86558 5.8125L3.07495 8.91094L4.68276 10.1766C5.0812 10.4906 5.29214 10.9781 5.24995 11.4844C5.2312 11.6672 5.22651 11.8359 5.22651 12C5.22651 12.1594 5.23589 12.3281 5.24995 12.5203C5.29683 13.0266 5.08589 13.5188 4.68745 13.8328L3.07026 15.1031L4.86089 18.2016L6.75933 17.4375C7.22808 17.25 7.75776 17.3062 8.17495 17.5969C8.46089 17.7984 8.76558 17.9766 9.07964 18.1266C9.52964 18.3422 9.8437 18.7687 9.9187 19.2656L10.2046 21.2812ZM12.0046 15.75C11.8828 15.75 11.7562 15.7453 11.6343 15.7313C10.6359 15.6328 9.74058 15.15 9.10308 14.3766C8.46558 13.6031 8.17026 12.6281 8.2687 11.6297C8.47026 9.57188 10.3125 8.0625 12.3703 8.26406C14.1421 8.44219 15.5531 9.85781 15.7312 11.625C15.7546 11.8687 15.7546 12.1172 15.7312 12.3656C15.539 14.3016 13.9078 15.75 12.0046 15.75ZM11.9953 9.75C11.475 9.75 10.9781 9.92812 10.5703 10.2609C10.1062 10.6406 9.81558 11.1797 9.75933 11.7797C9.69839 12.3797 9.87651 12.9609 10.2609 13.4297C10.6406 13.8938 11.1796 14.1844 11.7796 14.2406C13.0125 14.3625 14.1187 13.4578 14.2406 12.2203C14.2546 12.075 14.2546 11.925 14.2406 11.7797C14.1328 10.7156 13.2843 9.86719 12.2203 9.75937C12.1453 9.75469 12.0703 9.75 11.9953 9.75Z" fill="#F7F7F7"/>
</svg>
