<svg width="24" height="25" viewBox="0 0 24 25" fill="#808080" xmlns="http://www.w3.org/2000/svg">
<g clip-path="url(#clip0)">
<path d="M12 24.0019C11.9119 24.002 11.8251 23.9799 11.7478 23.9378L1.27163 18.1987C1.18932 18.1537 1.12068 18.0875 1.07289 18.007C1.0251 17.9265 0.999925 17.8347 1 17.7412V6.26302C0.999994 6.16958 1.0252 6.07786 1.07299 5.99746C1.12078 5.91706 1.18938 5.85092 1.27163 5.80598L11.7478 0.0669172C11.825 0.0243088 11.9118 0.00195312 12 0.00195312C12.0882 0.00195312 12.175 0.0243088 12.2522 0.0669172L22.7289 5.80598C22.8109 5.85111 22.8793 5.9173 22.927 5.99768C22.9747 6.07805 22.9999 6.16967 23 6.26302V17.7412C23 17.8346 22.9748 17.9263 22.9271 18.0068C22.8794 18.0872 22.811 18.1535 22.7289 18.1987L12.2522 23.9378C12.1749 23.9799 12.0881 24.002 12 24.0019ZM2.04762 17.4324L12 22.8851L21.9524 17.4324V6.57127L12 1.11952L2.04762 6.57127V17.4324ZM16.7143 17.2194C16.6455 17.2195 16.5774 17.206 16.5138 17.1798C16.4502 17.1536 16.3925 17.1151 16.3439 17.0666L12 12.7399L7.65607 17.0666C7.55751 17.1628 7.42482 17.2163 7.28683 17.2157C7.14884 17.215 7.0167 17.1601 6.91912 17.0629C6.82155 16.9657 6.76642 16.8341 6.76573 16.6966C6.76503 16.5592 6.81882 16.427 6.9154 16.3288L11.2593 12.0021L6.91536 7.67537C6.86592 7.62711 6.82657 7.56957 6.7996 7.50607C6.77262 7.44257 6.75855 7.37437 6.7582 7.30542C6.75785 7.23647 6.77123 7.16813 6.79756 7.10436C6.82389 7.04059 6.86265 6.98265 6.9116 6.9339C6.96055 6.88514 7.01872 6.84653 7.08274 6.82031C7.14677 6.79408 7.21537 6.78076 7.2846 6.78111C7.35382 6.78146 7.42229 6.79547 7.48605 6.82234C7.5498 6.84921 7.60757 6.8884 7.65603 6.93764L12 11.2643L16.3439 6.93761C16.3924 6.88837 16.4502 6.84918 16.5139 6.82231C16.5777 6.79544 16.6461 6.78142 16.7154 6.78108C16.7846 6.78073 16.8532 6.79405 16.9172 6.82028C16.9812 6.8465 17.0394 6.88511 17.0884 6.93387C17.1373 6.98262 17.1761 7.04056 17.2024 7.10433C17.2287 7.1681 17.2421 7.23643 17.2418 7.30539C17.2414 7.37434 17.2273 7.44253 17.2004 7.50604C17.1734 7.56954 17.134 7.62708 17.0846 7.67534L12.7407 12.0021L17.0846 16.3288C17.1578 16.4018 17.2077 16.4947 17.2279 16.5959C17.2481 16.6971 17.2378 16.802 17.1981 16.8973C17.1585 16.9926 17.0914 17.0741 17.0052 17.1315C16.9191 17.1888 16.8179 17.2194 16.7143 17.2194Z" />
</g>
<defs>
<clipPath id="clip0">
<rect width="24" height="24" fill="white" transform="translate(0 0.00195312)"/>
</clipPath>
</defs>
</svg>
