<svg width="18" height="18" viewBox="0 0 18 18" fill="none" xmlns="http://www.w3.org/2000/svg">
<path d="M9 10.6875C9.93198 10.6875 10.6875 9.93198 10.6875 9C10.6875 8.06802 9.93198 7.3125 9 7.3125C8.06802 7.3125 7.3125 8.06802 7.3125 9C7.3125 9.93198 8.06802 10.6875 9 10.6875Z" fill="#F7F7F7"/>
<path d="M9 16.3125C9.93198 16.3125 10.6875 15.557 10.6875 14.625C10.6875 13.693 9.93198 12.9375 9 12.9375C8.06802 12.9375 7.3125 13.693 7.3125 14.625C7.3125 15.557 8.06802 16.3125 9 16.3125Z" fill="#F7F7F7"/>
<path d="M9 5.0625C9.93198 5.0625 10.6875 4.30698 10.6875 3.375C10.6875 2.44302 9.93198 1.6875 9 1.6875C8.06802 1.6875 7.3125 2.44302 7.3125 3.375C7.3125 4.30698 8.06802 5.0625 9 5.0625Z" fill="#F7F7F7"/>
</svg>
