<svg width="27" height="28" viewBox="0 0 27 28" fill="none" stroke="white" xmlns="http://www.w3.org/2000/svg">
<path d="M1.78813 24.69L0.999748 11.2298C0.983355 11.0942 0.99604 10.9567 1.03696 10.8264C1.07788 10.696 1.1461 10.5759 1.23706 10.4741C1.32803 10.3722 1.43966 10.2908 1.56452 10.2355C1.68938 10.1801 1.82461 10.152 1.96119 10.153H10.8257C11.0412 10.1543 11.2503 10.2266 11.4206 10.3587C11.5909 10.4908 11.713 10.6753 11.7679 10.8837L12.537 13.9987H25.0358C25.1688 13.9983 25.3004 14.0255 25.4224 14.0785C25.5443 14.1316 25.654 14.2094 25.7443 14.307C25.8347 14.4046 25.9038 14.5198 25.9473 14.6455C25.9909 14.7712 26.0079 14.9045 25.9972 15.0371L25.2473 24.6515C25.2085 25.1344 24.989 25.5848 24.6325 25.9128C24.276 26.2408 23.8088 26.4221 23.3244 26.4206H3.71101C3.23266 26.423 2.77059 26.247 2.41504 25.927C2.05948 25.607 1.83596 25.1659 1.78813 24.69Z" stroke-width="2" stroke-linecap="round" stroke-linejoin="round"/>
<path d="M6.76837 6.30724V2.46147C6.76837 2.20648 6.86967 1.96194 7.04997 1.78163C7.23028 1.60132 7.47482 1.50003 7.72981 1.50003H24.0743C24.3293 1.50003 24.5739 1.60132 24.7542 1.78163C24.9345 1.96194 25.0358 2.20648 25.0358 2.46147V10.153" stroke-width="2" stroke-linecap="round" stroke-linejoin="round"/>
<path d="M14.46 6.30722H20.2286" stroke-width="2" stroke-linecap="round" stroke-linejoin="round"/>
</svg>
