<svg width="24" height="25" viewBox="0 0 24 25" fill="#A6A6A6" xmlns="http://www.w3.org/2000/svg">
<g clip-path="url(#clip0_1172:2220)">
<path d="M12 24.0019C11.9119 24.002 11.8251 23.9799 11.7478 23.9377L1.27163 18.1988C1.18932 18.1538 1.12068 18.0876 1.07289 18.0071C1.0251 17.9266 0.999925 17.8348 1 17.7413V6.26286C0.999994 6.16942 1.0252 6.0777 1.07299 5.9973C1.12078 5.9169 1.18938 5.85077 1.27163 5.80583L11.7478 0.0668853C11.825 0.0242778 11.9118 0.00192261 12 0.00192261C12.0882 0.00192261 12.175 0.0242778 12.2522 0.0668853L22.7289 5.80583C22.8109 5.85096 22.8793 5.91715 22.927 5.99752C22.9747 6.07789 22.9999 6.16951 23 6.26286V17.7413C23 17.8347 22.9748 17.9264 22.9271 18.0069C22.8794 18.0873 22.811 18.1536 22.7289 18.1988L12.2522 23.9377C12.1749 23.9799 12.0881 24.002 12 24.0019ZM2.04762 17.4325L12 22.8851L21.9524 17.4325V6.5711L12 1.11947L2.04762 6.5711V17.4325Z" fill-opacity="0.75" />
<path d="M11.999 19.8282C11.9302 19.8282 11.8621 19.8147 11.7985 19.7885C11.735 19.7622 11.6772 19.7238 11.6286 19.6753L10.0582 18.1102C10.0096 18.0617 9.97099 18.0042 9.94466 17.9409C9.91834 17.8776 9.90478 17.8098 9.90478 17.7413C9.90478 17.6728 9.91834 17.605 9.94466 17.5417C9.97099 17.4784 10.0096 17.4209 10.0582 17.3724L11.6297 15.8073C11.6783 15.7588 11.736 15.7204 11.7996 15.6941C11.8631 15.6679 11.9312 15.6544 12 15.6544C12.0688 15.6544 12.1369 15.6679 12.2004 15.6941C12.264 15.7203 12.3217 15.7588 12.3704 15.8072L13.9407 17.3724C13.9894 17.4208 14.028 17.4783 14.0543 17.5416C14.0806 17.6049 14.0942 17.6728 14.0942 17.7413C14.0942 17.8098 14.0806 17.8776 14.0543 17.9409C14.028 18.0042 13.9894 18.0617 13.9407 18.1101L12.3693 19.6753C12.3207 19.7238 12.263 19.7622 12.1994 19.7884C12.1359 19.8147 12.0677 19.8282 11.999 19.8282ZM11.1692 17.7413L11.999 18.5687L12.8297 17.7413L12 16.9138L11.1692 17.7413ZM13.0476 14.6109H10.9524C10.8836 14.611 10.8154 14.5975 10.7519 14.5713C10.6883 14.5451 10.6305 14.5067 10.5819 14.4582C10.5333 14.4098 10.4947 14.3522 10.4684 14.2889C10.4421 14.2256 10.4285 14.1577 10.4286 14.0892V11.4801C10.4286 11.3942 10.4499 11.3097 10.4906 11.2339C10.5313 11.1582 10.5901 11.0937 10.6618 11.046L13.5714 9.11402V8.08891L11.9729 6.89465L8.08727 9.31373C8.008 9.36316 7.91688 9.39055 7.82339 9.39304C7.7299 9.39553 7.63745 9.37304 7.55563 9.3279C7.47382 9.28276 7.40564 9.21663 7.35817 9.13636C7.31071 9.0561 7.28569 8.96464 7.28571 8.87149V6.52374C7.28573 6.4353 7.30832 6.34831 7.35136 6.27096C7.3944 6.1936 7.45647 6.12841 7.53176 6.08151L11.7222 3.4729C11.8086 3.41863 11.9092 3.39086 12.0113 3.39303C12.1134 3.3952 12.2127 3.42723 12.2967 3.48512L16.4872 6.35459C16.5572 6.40254 16.6145 6.46675 16.654 6.54166C16.6936 6.61658 16.7143 6.69995 16.7143 6.7846V10.4367C16.7142 10.5225 16.6928 10.607 16.6521 10.6827C16.6115 10.7584 16.5527 10.823 16.481 10.8707L13.5714 12.8028V14.0892C13.5715 14.1577 13.5579 14.2256 13.5316 14.2889C13.5053 14.3522 13.4667 14.4098 13.4181 14.4582C13.3694 14.5067 13.3117 14.5451 13.2481 14.5713C13.1845 14.5975 13.1164 14.611 13.0476 14.6109ZM11.4762 13.5675H12.5238V12.5235C12.5238 12.4377 12.5451 12.3531 12.5858 12.2774C12.6265 12.2017 12.6853 12.1371 12.7571 12.0895L15.6667 10.1575V7.05923L11.9862 4.53876L8.33333 6.81314V7.92995L11.7222 5.82065C11.8119 5.76483 11.9164 5.73734 12.022 5.7418C12.1277 5.74625 12.2295 5.78244 12.3141 5.84561L14.4093 7.41077C14.4744 7.45932 14.5273 7.52231 14.5637 7.59474C14.6001 7.66717 14.619 7.74705 14.619 7.82805V9.39321C14.6189 9.47908 14.5976 9.56359 14.5569 9.63929C14.5162 9.71499 14.4574 9.77956 14.3858 9.82729L11.4762 11.7593V13.5675Z" fill-opacity="1" />
</g>
<defs>
<clipPath id="clip0_1172:2220">
<rect width="24" height="24" fill="white" transform="translate(0 0.00195312)"/>
</clipPath>
</defs>
</svg>
