<svg width="21" height="20" viewBox="0 0 21 20" fill="none" xmlns="http://www.w3.org/2000/svg">
  <path d="M10.7169 3.95625C10.6587 3.90062 10.5814 3.86957 10.5009 3.86957C10.4204 3.86957 10.343 3.90062 10.2849 3.95625L3.09346 10.8262C3.06292 10.8554 3.03862 10.8905 3.02204 10.9294C3.00545 10.9682 2.99693 11.0101 2.99698 11.0523L2.9958 17.5C2.9958 17.8315 3.1275 18.1495 3.36192 18.3839C3.59634 18.6183 3.91428 18.75 4.2458 18.75H7.99971C8.16547 18.75 8.32444 18.6842 8.44165 18.5669C8.55886 18.4497 8.62471 18.2908 8.62471 18.125V12.8125C8.62471 12.7296 8.65763 12.6501 8.71624 12.5915C8.77484 12.5329 8.85433 12.5 8.93721 12.5H12.0622C12.1451 12.5 12.2246 12.5329 12.2832 12.5915C12.3418 12.6501 12.3747 12.7296 12.3747 12.8125V18.125C12.3747 18.2908 12.4406 18.4497 12.5578 18.5669C12.675 18.6842 12.8339 18.75 12.9997 18.75H16.7521C17.0836 18.75 17.4015 18.6183 17.6359 18.3839C17.8704 18.1495 18.0021 17.8315 18.0021 17.5V11.0523C18.0021 11.0101 17.9936 10.9682 17.977 10.9294C17.9604 10.8905 17.9361 10.8554 17.9056 10.8262L10.7169 3.95625Z" />
  <path d="M19.6759 9.53711L16.754 6.7418V2.5C16.754 2.33424 16.6882 2.17527 16.5709 2.05806C16.4537 1.94085 16.2948 1.875 16.129 1.875H14.254C14.0882 1.875 13.9293 1.94085 13.8121 2.05806C13.6949 2.17527 13.629 2.33424 13.629 2.5V3.75L11.3665 1.58672C11.1548 1.37266 10.8399 1.25 10.4997 1.25C10.1606 1.25 9.84658 1.37266 9.63486 1.58711L1.32627 9.53633C1.0833 9.7707 1.05283 10.1562 1.27393 10.4102C1.32945 10.4742 1.39743 10.5264 1.47373 10.5633C1.55004 10.6003 1.63307 10.6214 1.71777 10.6253C1.80248 10.6291 1.88708 10.6157 1.96645 10.5859C2.04581 10.556 2.11826 10.5103 2.1794 10.4516L10.2849 2.70625C10.343 2.65062 10.4204 2.61957 10.5009 2.61957C10.5814 2.61957 10.6587 2.65062 10.7169 2.70625L18.8231 10.4516C18.9426 10.5661 19.1025 10.6286 19.2679 10.6253C19.4333 10.6221 19.5907 10.5534 19.7056 10.4344C19.9454 10.1859 19.9255 9.77578 19.6759 9.53711Z" />
</svg>
