<svg width="24" height="25" viewBox="0 0 24 25" fill="#A6A6A6" xmlns="http://www.w3.org/2000/svg">
<g clip-path="url(#clip0)">
<path d="M19.5 17.496C19.4011 17.496 19.3045 17.4666 19.2223 17.4117C19.14 17.3568 19.076 17.2787 19.0381 17.1873C19.0003 17.096 18.9904 16.9954 19.0097 16.8985C19.029 16.8015 19.0766 16.7124 19.1465 16.6425L22.293 13.4959H13.5C13.3674 13.4959 13.2402 13.4432 13.1464 13.3495C13.0527 13.2557 13 13.1285 13 12.9959C13 12.8633 13.0527 12.7361 13.1464 12.6423C13.2402 12.5486 13.3674 12.4959 13.5 12.4959H22.293L19.1465 9.34935C19.0543 9.25527 19.0029 9.12861 19.0036 8.99689C19.0043 8.86516 19.0569 8.73903 19.15 8.64589C19.2432 8.55274 19.3693 8.50012 19.501 8.49946C19.6327 8.49879 19.7594 8.55014 19.8535 8.64233L23.8525 12.6414L23.8632 12.6531H23.8642L23.8652 12.6541C23.9065 12.6982 23.9392 12.7495 23.9619 12.8055C23.9851 12.8613 23.998 12.9209 24 12.9813V12.9833V13.0087V13.0107C23.998 13.0711 23.9851 13.1306 23.9619 13.1864C23.9392 13.2424 23.9065 13.2937 23.8652 13.3378L23.8642 13.3388H23.8632L23.8525 13.3505L19.8535 17.3496C19.8071 17.3961 19.752 17.433 19.6914 17.4581C19.6307 17.4832 19.5657 17.4961 19.5 17.496Z" />
<path d="M16.5 10.4959C16.5657 10.4959 16.6307 10.483 16.6914 10.4579C16.7521 10.4328 16.8072 10.3959 16.8536 10.3495C16.9001 10.3031 16.9369 10.2479 16.962 10.1872C16.9871 10.1266 17 10.0615 17 9.99585V3.99573C17 3.93006 16.9871 3.86502 16.962 3.80434C16.9369 3.74366 16.9001 3.68852 16.8536 3.64209C16.8072 3.59565 16.7521 3.55882 16.6914 3.5337C16.6307 3.50859 16.5657 3.49568 16.5 3.49572H11V1.99569C10.9999 1.92176 10.9835 1.84875 10.9519 1.7819C10.9204 1.71505 10.8744 1.656 10.8174 1.60897C10.76 1.56246 10.6931 1.52908 10.6214 1.5112C10.5497 1.49331 10.4749 1.49135 10.4024 1.50545L0.4019 3.50549C0.288603 3.52822 0.186668 3.58947 0.113407 3.67884C0.0401451 3.7682 7.44624e-05 3.88017 0 3.99573L0 21.9961C7.02959e-05 22.1117 0.0401342 22.2236 0.113388 22.313C0.186642 22.4023 0.288569 22.4636 0.40186 22.4863L10.4023 24.4864C10.4345 24.493 10.4672 24.4963 10.5 24.4961C10.5657 24.4962 10.6307 24.4834 10.6914 24.4583C10.7522 24.4332 10.8073 24.3964 10.8538 24.3499C10.9002 24.3035 10.937 24.2483 10.9621 24.1876C10.9872 24.1269 11.0001 24.0618 11 23.9961V22.4961H16.5C16.5657 22.4961 16.6307 22.4832 16.6914 22.4581C16.7521 22.433 16.8072 22.3962 16.8536 22.3497C16.9001 22.3033 16.9369 22.2482 16.962 22.1875C16.9871 22.1268 17 22.0618 17 21.9961V15.996C17 15.8634 16.9473 15.7362 16.8536 15.6424C16.7598 15.5486 16.6326 15.496 16.5 15.496C16.3674 15.496 16.2402 15.5486 16.1464 15.6424C16.0527 15.7362 16 15.8634 16 15.996V21.4961H11V4.49574H16V9.99585C16 10.0615 16.0129 10.1266 16.038 10.1872C16.0631 10.2479 16.0999 10.3031 16.1464 10.3495C16.1928 10.3959 16.2479 10.4328 16.3086 10.4579C16.3693 10.483 16.4343 10.4959 16.5 10.4959ZM10 23.3858L1 21.5859V4.40541L10 2.60557V23.3858ZM6.64551 14.8492C6.69193 14.8957 6.74704 14.9325 6.80769 14.9576C6.86834 14.9828 6.93336 14.9957 6.99901 14.9957C7.06466 14.9957 7.12968 14.9828 7.19033 14.9576C7.25099 14.9325 7.30609 14.8957 7.35251 14.8492L8.85251 13.3492C8.89894 13.3028 8.93578 13.2477 8.96091 13.187C8.98604 13.1264 8.99897 13.0613 8.99897 12.9957C8.99897 12.93 8.98604 12.865 8.96091 12.8044C8.93578 12.7437 8.89894 12.6886 8.85251 12.6422L7.35351 11.1422C7.30709 11.0957 7.25198 11.0589 7.19133 11.0338C7.13068 11.0086 7.06566 10.9957 7.00001 10.9957C6.93436 10.9957 6.86934 11.0086 6.80869 11.0338C6.74804 11.0589 6.69293 11.0957 6.64651 11.1422L5.14651 12.6422C5.10008 12.6886 5.06324 12.7437 5.03811 12.8044C5.01298 12.865 5.00005 12.93 5.00005 12.9957C5.00005 13.0613 5.01298 13.1264 5.03811 13.187C5.06324 13.2477 5.10008 13.3028 5.14651 13.3492L6.64551 14.8492ZM7 12.2027L7.792 12.9957L6.999 13.7887L6.207 12.9957L7 12.2027Z" fill-opacity="0.75" />
</g>
<defs>
<clipPath id="clip0">
<rect width="24" height="24.0005" fill="white" transform="translate(0 0.996094)"/>
</clipPath>
</defs>
</svg>
