<svg width="24" height="25" viewBox="0 0 24 25" fill="#A6A6A6" xmlns="http://www.w3.org/2000/svg">
<g clip-path="url(#clip0)">
<path d="M2.60876 19.7777C2.54024 19.7777 2.47238 19.7642 2.40907 19.738C2.34576 19.7118 2.28823 19.6734 2.23978 19.6249C2.19133 19.5765 2.1529 19.5189 2.12668 19.4556C2.10047 19.3923 2.08699 19.3245 2.08701 19.2559V15.6047H0.521753C0.38332 15.6046 0.250601 15.5495 0.152764 15.4516C0.0549277 15.3536 -1.93291e-05 15.2209 8.78687e-08 15.0824V1.51687C-3.96934e-05 1.44834 0.0134287 1.38048 0.0396351 1.31716C0.0658415 1.25384 0.104272 1.1963 0.152729 1.14785C0.201186 1.09939 0.25872 1.06096 0.322039 1.03475C0.385359 1.00855 0.453224 0.995077 0.521753 0.995117H19.3048C19.3734 0.995077 19.4412 1.00855 19.5046 1.03475C19.5679 1.06096 19.6254 1.09939 19.6739 1.14785C19.7223 1.1963 19.7608 1.25384 19.787 1.31716C19.8132 1.38048 19.8266 1.44834 19.8266 1.51687V9.86491C19.8266 10.0033 19.7716 10.136 19.6738 10.2338C19.5759 10.3317 19.4432 10.3867 19.3048 10.3867C19.1665 10.3867 19.0338 10.3317 18.9359 10.2338C18.8381 10.136 18.7831 10.0033 18.7831 9.86491V2.03862H1.04351V14.5607H2.60876C2.67729 14.5606 2.74516 14.5741 2.80848 14.6003C2.8718 14.6265 2.92933 14.665 2.97779 14.7134C3.02624 14.7619 3.06467 14.8194 3.09088 14.8827C3.11709 14.946 3.13055 15.0139 3.13051 15.0824V18.0942L6.95809 14.6926C7.05343 14.6076 7.17676 14.5606 7.30453 14.5607H8.86979C9.00783 14.5613 9.14001 14.6166 9.2374 14.7144C9.33479 14.8122 9.38947 14.9446 9.38947 15.0827C9.38947 15.2207 9.33479 15.3532 9.2374 15.451C9.14001 15.5488 9.00783 15.6041 8.86979 15.6047H7.50274L2.95521 19.6462C2.85976 19.7311 2.73646 19.7779 2.60876 19.7777ZM8.86979 11.4302H3.65227C3.51389 11.4302 3.38118 11.3752 3.28333 11.2773C3.18549 11.1795 3.13051 11.0468 3.13051 10.9084C3.13051 10.77 3.18549 10.6373 3.28333 10.5395C3.38118 10.4416 3.51389 10.3867 3.65227 10.3867H8.86979C9.00817 10.3867 9.14088 10.4416 9.23873 10.5395C9.33657 10.6373 9.39154 10.77 9.39154 10.9084C9.39154 11.0468 9.33657 11.1795 9.23873 11.2773C9.14088 11.3752 9.00817 11.4302 8.86979 11.4302ZM16.1743 9.34316H3.65227C3.51389 9.34316 3.38118 9.28819 3.28333 9.19034C3.18549 9.09249 3.13051 8.95978 3.13051 8.8214C3.13051 8.68303 3.18549 8.55032 3.28333 8.45247C3.38118 8.35462 3.51389 8.29965 3.65227 8.29965H16.1743C16.3127 8.29965 16.4454 8.35462 16.5433 8.45247C16.6411 8.55032 16.6961 8.68303 16.6961 8.8214C16.6961 8.95978 16.6411 9.09249 16.5433 9.19034C16.4454 9.28819 16.3127 9.34316 16.1743 9.34316ZM16.1743 7.25615H3.65227C3.51389 7.25615 3.38118 7.20118 3.28333 7.10333C3.18549 7.00548 3.13051 6.87277 3.13051 6.73439C3.13051 6.59602 3.18549 6.46331 3.28333 6.36546C3.38118 6.26761 3.51389 6.21264 3.65227 6.21264H16.1743C16.3127 6.21264 16.4454 6.26761 16.5433 6.36546C16.6411 6.46331 16.6961 6.59602 16.6961 6.73439C16.6961 6.87277 16.6411 7.00548 16.5433 7.10333C16.4454 7.20118 16.3127 7.25615 16.1743 7.25615ZM16.1743 5.16914H3.65227C3.51389 5.16914 3.38118 5.11417 3.28333 5.01632C3.18549 4.91847 3.13051 4.78576 3.13051 4.64738C3.13051 4.50901 3.18549 4.3763 3.28333 4.27845C3.38118 4.1806 3.51389 4.12563 3.65227 4.12563H16.1743C16.3127 4.12563 16.4454 4.1806 16.5433 4.27845C16.6411 4.3763 16.6961 4.50901 16.6961 4.64738C16.6961 4.78576 16.6411 4.91847 16.5433 5.01632C16.4454 5.11417 16.3127 5.16914 16.1743 5.16914Z"/>
<path d="M23.4789 11.4302H10.9568C10.8883 11.4301 10.8204 11.4436 10.7571 11.4698C10.6938 11.496 10.6362 11.5344 10.5878 11.5829C10.5393 11.6313 10.5009 11.6889 10.4747 11.7522C10.4485 11.8155 10.435 11.8834 10.4351 11.9519V21.3429C10.435 21.4115 10.4485 21.4793 10.4747 21.5427C10.5009 21.606 10.5393 21.6635 10.5878 21.712C10.6362 21.7604 10.6938 21.7989 10.7571 21.8251C10.8204 21.8513 10.8883 21.8647 10.9568 21.8647H18.0453L21.023 24.8423C21.0959 24.9153 21.1889 24.965 21.2901 24.9851C21.3913 25.0052 21.4962 24.9949 21.5915 24.9554C21.6868 24.9159 21.7683 24.8491 21.8256 24.7633C21.883 24.6775 21.9136 24.5766 21.9136 24.4735V21.8647H23.4789C23.5474 21.8647 23.6153 21.8513 23.6786 21.8251C23.7419 21.7989 23.7994 21.7604 23.8479 21.712C23.8963 21.6635 23.9348 21.606 23.961 21.5427C23.9872 21.4793 24.0007 21.4115 24.0006 21.3429V11.9519C24.0007 11.8834 23.9872 11.8155 23.961 11.7522C23.9348 11.6889 23.8963 11.6313 23.8479 11.5829C23.7994 11.5344 23.7419 11.496 23.6786 11.4698C23.6153 11.4436 23.5474 11.4301 23.4789 11.4302ZM22.9571 20.8212H21.3919C21.3233 20.8212 21.2555 20.8346 21.1921 20.8608C21.1288 20.887 21.0713 20.9255 21.0228 20.9739C20.9744 21.0224 20.9359 21.0799 20.9097 21.1432C20.8835 21.2066 20.8701 21.2744 20.8701 21.3429V23.214L18.6302 20.9741C18.5818 20.9256 18.5243 20.8871 18.461 20.8609C18.3977 20.8347 18.3299 20.8212 18.2613 20.8212H11.4786V12.4737H22.9571V20.8212ZM12.5221 14.0387C12.522 13.9701 12.5355 13.9023 12.5617 13.839C12.5879 13.7756 12.6263 13.7181 12.6748 13.6696C12.7232 13.6212 12.7808 13.5828 12.8441 13.5566C12.9074 13.5303 12.9753 13.5169 13.0438 13.5169H21.3919C21.5302 13.5169 21.6629 13.5719 21.7608 13.6697C21.8586 13.7676 21.9136 13.9003 21.9136 14.0387C21.9136 14.177 21.8586 14.3098 21.7608 14.4076C21.6629 14.5055 21.5302 14.5604 21.3919 14.5604H13.0438C12.9753 14.5605 12.9074 14.547 12.8441 14.5208C12.7808 14.4946 12.7232 14.4561 12.6748 14.4077C12.6263 14.3592 12.5879 14.3017 12.5617 14.2384C12.5355 14.1751 12.522 14.1072 12.5221 14.0387ZM12.5221 18.2122C12.522 18.1437 12.5355 18.0758 12.5617 18.0125C12.5879 17.9491 12.6263 17.8916 12.6748 17.8432C12.7232 17.7947 12.7808 17.7563 12.8441 17.7301C12.9074 17.7039 12.9753 17.6904 13.0438 17.6904H17.2178C17.3562 17.6904 17.4889 17.7454 17.5868 17.8432C17.6846 17.9411 17.7396 18.0738 17.7396 18.2122C17.7396 18.3506 17.6846 18.4833 17.5868 18.5811C17.4889 18.679 17.3562 18.7339 17.2178 18.7339H13.0438C12.9753 18.734 12.9074 18.7205 12.8441 18.6943C12.7808 18.6681 12.7232 18.6297 12.6748 18.5812C12.6263 18.5327 12.5879 18.4752 12.5617 18.4119C12.5355 18.3486 12.522 18.2807 12.5221 18.2122ZM12.5221 16.1252C12.522 16.0566 12.5355 15.9888 12.5617 15.9255C12.5879 15.8621 12.6263 15.8046 12.6748 15.7561C12.7232 15.7077 12.7808 15.6693 12.8441 15.6431C12.9074 15.6168 12.9753 15.6034 13.0438 15.6034H21.3919C21.5302 15.6034 21.6629 15.6584 21.7608 15.7562C21.8586 15.8541 21.9136 15.9868 21.9136 16.1252C21.9136 16.2635 21.8586 16.3963 21.7608 16.4941C21.6629 16.592 21.5302 16.6469 21.3919 16.6469H13.0438C12.9753 16.647 12.9074 16.6335 12.8441 16.6073C12.7808 16.5811 12.7232 16.5426 12.6748 16.4942C12.6263 16.4457 12.5879 16.3882 12.5617 16.3249C12.5355 16.2616 12.522 16.1937 12.5221 16.1252Z" fill-opacity="0.75"/>
</g>
<defs>
<clipPath id="clip0">
<rect width="24" height="24.0005" fill="white" transform="translate(0 0.996582)"/>
</clipPath>
</defs>
</svg>
