<svg width="19" height="20" viewBox="0 0 19 20" fill="none" stroke="#5AFFC7" fill-opacity="0" xmlns="http://www.w3.org/2000/svg">
  <path d="M4.65255 10.6917C5.03479 10.6917 5.34466 10.3818 5.34466 9.9996C5.34466 9.61736 5.03479 9.3075 4.65255 9.3075C4.27031 9.3075 3.96045 9.61736 3.96045 9.9996C3.96045 10.3818 4.27031 10.6917 4.65255 10.6917Z" stroke-linecap="round" stroke-linejoin="round"/>
  <path d="M9.15121 10.6917C9.53345 10.6917 9.84331 10.3818 9.84331 9.9996C9.84331 9.61736 9.53345 9.3075 9.15121 9.3075C8.76897 9.3075 8.45911 9.61736 8.45911 9.9996C8.45911 10.3818 8.76897 10.6917 9.15121 10.6917Z" stroke-linecap="round" stroke-linejoin="round"/>
  <path d="M13.6499 10.6917C14.0321 10.6917 14.342 10.3818 14.342 9.9996C14.342 9.61736 14.0321 9.3075 13.6499 9.3075C13.2676 9.3075 12.9578 9.61736 12.9578 9.9996C12.9578 10.3818 13.2676 10.6917 13.6499 10.6917Z" stroke-linecap="round" stroke-linejoin="round"/>
  <path d="M9.49734 1C7.86985 1.00051 6.27297 1.44258 4.87678 2.27913C3.4806 3.11568 2.33739 4.31537 1.56893 5.75044C0.800474 7.18551 0.435539 8.80221 0.512997 10.4283C0.590454 12.0545 1.1074 13.6291 2.00879 14.9846L0.5 19L5.55236 18.0862C6.76895 18.6808 8.10403 18.9932 9.4581 18.9999C10.8122 19.0066 12.1503 18.7075 13.3727 18.1249C14.5951 17.5423 15.6703 16.6912 16.5181 15.6351C17.3659 14.579 17.9645 13.345 18.2692 12.0253C18.5739 10.7056 18.5769 9.33403 18.278 8.01298C17.979 6.69192 17.3858 5.4554 16.5426 4.39558C15.6994 3.33577 14.628 2.48 13.4081 1.89207C12.1882 1.30413 10.8514 0.999202 9.49734 1V1Z" stroke-linecap="round" stroke-linejoin="round"/>
</svg>
