<svg width="21" height="20" viewBox="0 0 21 20" fill="none" stroke="#98A1BD" xmlns="http://www.w3.org/2000/svg">
<path d="M10.3333 11.4286C12.3057 11.4286 13.9047 9.82964 13.9047 7.85719C13.9047 5.88475 12.3057 4.28577 10.3333 4.28577C8.36082 4.28577 6.76184 5.88475 6.76184 7.85719C6.76184 9.82964 8.36082 11.4286 10.3333 11.4286Z" stroke-width="2" stroke-linecap="round" stroke-linejoin="round"/>
<path d="M15.0619 15.3573C13.7566 14.2043 12.075 13.568 10.3334 13.568C8.59175 13.568 6.91014 14.2043 5.6048 15.3573" stroke-width="2" stroke-linecap="round" stroke-linejoin="round"/>
<path d="M19.6191 15V17.8571C19.6191 18.236 19.4686 18.5994 19.2007 18.8673C18.9328 19.1352 18.5694 19.2857 18.1905 19.2857H15.3334" stroke-width="2" stroke-linecap="round" stroke-linejoin="round"/>
<path d="M15.3334 0.714355H18.1905C18.5694 0.714355 18.9328 0.864865 19.2007 1.13277C19.4686 1.40068 19.6191 1.76405 19.6191 2.14293V5.00007" stroke-width="2" stroke-linecap="round" stroke-linejoin="round"/>
<path d="M1.04761 5.00007V2.14293C1.04761 1.76405 1.19812 1.40068 1.46603 1.13277C1.73394 0.864865 2.0973 0.714355 2.47618 0.714355H5.33332" stroke-width="2" stroke-linecap="round" stroke-linejoin="round"/>
<path d="M5.33332 19.2857H2.47618C2.0973 19.2857 1.73394 19.1352 1.46603 18.8673C1.19812 18.5994 1.04761 18.236 1.04761 17.8571V15" stroke-width="2" stroke-linecap="round" stroke-linejoin="round"/>
</svg>
