<svg width="19" height="18" viewBox="0 0 19 18" fill="#98A1BD" xmlns="http://www.w3.org/2000/svg">
  <path d="M6.78871 17.125H5.74887C5.64438 17.125 5.54158 17.0987 5.44985 17.0487C5.35812 16.9987 5.28039 16.9265 5.22378 16.8387C5.16716 16.7508 5.13347 16.6502 5.12577 16.546C5.11808 16.4418 5.13663 16.3374 5.17972 16.2422L7.69769 10.6855L3.91683 10.6016L2.53793 12.2723C2.27504 12.6027 2.06527 12.75 1.53012 12.75H0.830116C0.719285 12.7536 0.609227 12.7304 0.509269 12.6824C0.40931 12.6343 0.322398 12.563 0.255897 12.4742C0.162929 12.3488 0.0715224 12.1363 0.160585 11.8332L0.934804 9.05977C0.940663 9.03906 0.947694 9.01836 0.955507 8.99805C0.955896 8.99611 0.955896 8.99412 0.955507 8.99219C0.94744 8.97189 0.940527 8.95116 0.934804 8.93008L0.159804 6.13906C0.0758192 5.8418 0.167616 5.63398 0.259804 5.51172C0.321708 5.42958 0.402023 5.36311 0.49429 5.31765C0.586557 5.2722 0.688202 5.24903 0.791054 5.25H1.53012C1.92973 5.25 2.31762 5.4293 2.54574 5.71875L3.89613 7.36133L7.69769 7.30508L5.18051 1.7582C5.13735 1.66307 5.11873 1.55863 5.12634 1.45444C5.13396 1.35025 5.16757 1.24963 5.2241 1.16178C5.28063 1.07393 5.35829 1.00165 5.44996 0.951554C5.54163 0.901456 5.6444 0.875136 5.74887 0.875H6.80004C6.94669 0.877947 7.09079 0.913891 7.22165 0.980164C7.3525 1.04644 7.46674 1.14134 7.5559 1.25781L12.4407 7.19531L14.6973 7.13594C14.8625 7.12695 15.3203 7.12383 15.4262 7.12383C17.5848 7.125 18.8739 7.82578 18.8739 9C18.8739 9.36953 18.7262 10.0547 17.7383 10.4906C17.1551 10.7484 16.377 10.8789 15.4254 10.8789C15.3207 10.8789 14.8641 10.8758 14.6965 10.8668L12.4403 10.8066L7.5434 16.7441C7.45417 16.8601 7.34003 16.9545 7.2094 17.0205C7.07877 17.0864 6.935 17.1221 6.78871 17.125Z"/>
</svg>
