<svg width="24" height="24" viewBox="0 0 24 24" fill="none" xmlns="http://www.w3.org/2000/svg">
<path d="M21.3913 15.0015C21.2936 15.0015 21.1979 14.9727 21.1151 14.9184L19.0282 13.5549C18.953 13.506 18.8909 13.438 18.848 13.357C18.805 13.2761 18.7825 13.1851 18.7826 13.0925V10.9104C18.7826 10.8179 18.8052 10.7269 18.8481 10.646C18.8911 10.5651 18.9531 10.497 19.0282 10.4481L21.1151 9.08455C21.1979 9.03026 21.2936 9.00146 21.3913 9.00146C21.489 9.00146 21.5847 9.03026 21.6675 9.08455L23.7544 10.4481C23.8295 10.497 23.8915 10.5651 23.9345 10.646C23.9774 10.7269 24 10.8179 24 10.9104V13.0925C24.0001 13.1851 23.9776 13.2761 23.9346 13.357C23.8917 13.438 23.8296 13.506 23.7544 13.5549L21.6675 14.9184C21.5847 14.9727 21.489 15.0015 21.3913 15.0015ZM19.8261 12.79L21.3913 13.8126L22.9565 12.79V11.2129L21.3913 10.1903L19.8261 11.2129V12.79ZM12 15.0015C11.9021 15.0015 11.8063 14.9727 11.7233 14.9184L9.63638 13.5549C9.56131 13.5059 9.49941 13.4378 9.45653 13.3569C9.41364 13.276 9.3912 13.185 9.3913 13.0925V10.9104C9.39132 10.8179 9.41382 10.727 9.45669 10.6461C9.49956 10.5652 9.56139 10.4971 9.63638 10.4481L11.7233 9.08455C11.8063 9.03026 11.9021 9.00147 12 9.00147C12.0979 9.00147 12.1937 9.03026 12.2767 9.08455L14.3631 10.4481C14.4382 10.497 14.5002 10.5651 14.5432 10.646C14.5861 10.7269 14.6087 10.8179 14.6087 10.9104V13.0925C14.6088 13.1851 14.5863 13.2761 14.5433 13.357C14.5004 13.438 14.4383 13.506 14.3631 13.5549L12.2767 14.9184C12.1937 14.9727 12.0979 15.0015 12 15.0015ZM10.4348 12.79L12 13.8126L13.5652 12.79V11.2129L12 10.1903L10.4348 11.2129V12.79ZM2.6087 15.0015C2.51084 15.0015 2.41496 14.9727 2.33203 14.9184L0.245072 13.5549C0.170001 13.5059 0.108102 13.4378 0.0652217 13.3569C0.022341 13.276 -0.000106135 13.185 3.77293e-07 13.0925V10.9104C1.47573e-05 10.8179 0.0225135 10.727 0.0653829 10.6461C0.108252 10.5652 0.170085 10.4971 0.245072 10.4481L2.33203 9.08455C2.41496 9.03026 2.51084 9.00147 2.6087 9.00147C2.70655 9.00147 2.80243 9.03026 2.88536 9.08455L4.97232 10.4481C5.04731 10.4971 5.10914 10.5652 5.15201 10.6461C5.19488 10.727 5.21738 10.8179 5.21739 10.9104V13.0925C5.2175 13.185 5.19505 13.276 5.15217 13.3569C5.10929 13.4378 5.04739 13.5059 4.97232 13.5549L2.88536 14.9184C2.80243 14.9727 2.70655 15.0015 2.6087 15.0015ZM1.04348 12.79L2.6087 13.8126L4.17391 12.79V11.2129L2.6087 10.1903L1.04348 11.2129V12.79Z" fill="#808080"/>
</svg>
