<svg width="24" height="24" viewBox="0 0 24 24" fill="#A6A6A6" xmlns="http://www.w3.org/2000/svg">
<g clip-path="url(#clip0)">
<path d="M19.3047 20.8695C19.184 20.8696 19.067 20.8278 18.9737 20.7512C18.8804 20.6746 18.8166 20.568 18.7931 20.4496L18.3947 18.4564L16.3679 19.2665C16.2875 19.2987 16.2003 19.3104 16.1142 19.3004C16.0282 19.2905 15.946 19.2593 15.875 19.2097C15.804 19.16 15.7465 19.0935 15.7077 19.0161C15.6688 18.9386 15.6499 18.8528 15.6525 18.7662L15.7259 16.4479L14.3176 15.3473L10.2457 16.5233C10.1695 16.5448 10.0895 16.5489 10.0115 16.5353C9.93359 16.5217 9.85968 16.4908 9.79526 16.4449L8.56429 15.5532C8.50862 15.5131 8.46141 15.4625 8.42535 15.4041C8.38929 15.3457 8.36509 15.2808 8.35413 15.2131C8.34318 15.1454 8.34569 15.0762 8.36151 15.0094C8.37734 14.9427 8.40617 14.8797 8.44636 14.8241C8.48655 14.7685 8.53731 14.7214 8.59574 14.6854C8.65416 14.6494 8.7191 14.6253 8.78684 14.6145C8.85458 14.6037 8.9238 14.6063 8.99052 14.6222C9.05724 14.6382 9.12017 14.6671 9.1757 14.7074L10.2008 15.4503L14.284 14.2712C14.3633 14.2486 14.4468 14.2451 14.5277 14.2608C14.6087 14.2766 14.6847 14.3112 14.7497 14.3619L16.5768 15.7896C16.6416 15.8399 16.6935 15.9048 16.7284 15.979C16.7633 16.0532 16.7801 16.1346 16.7776 16.2166L16.7205 18.0019L18.5894 17.255C18.6603 17.2258 18.7368 17.2129 18.8134 17.2173C18.89 17.2217 18.9645 17.2433 19.0316 17.2804C19.0991 17.3168 19.1576 17.3676 19.2031 17.4293C19.2486 17.491 19.2798 17.5619 19.2946 17.6371L19.7052 19.6904L22.3486 18.9374L15.3315 13.454C15.2773 13.4119 15.2319 13.3596 15.1979 13.3C15.1639 13.2403 15.142 13.1746 15.1335 13.1064C15.125 13.0383 15.1301 12.9692 15.1484 12.9031C15.1667 12.8369 15.1978 12.775 15.2401 12.7209C15.2824 12.6668 15.3349 12.6216 15.3947 12.5879C15.4545 12.5542 15.5203 12.5326 15.5885 12.5244C15.6566 12.5162 15.7257 12.5215 15.7918 12.5401C15.8579 12.5587 15.9196 12.5901 15.9735 12.6326L22.9568 18.0875V16.9452L16.6736 11.8908C16.6102 11.8396 16.5596 11.7744 16.5258 11.7003C16.4921 11.6262 16.476 11.5452 16.4789 11.4638L16.642 7.22977L13.3924 4.68418L10.2895 5.92944C10.2257 5.9561 10.1573 5.96982 10.0882 5.96981C10.019 5.96981 9.95062 5.95606 9.88685 5.92938C9.82309 5.90271 9.76527 5.86362 9.71674 5.81441C9.66821 5.7652 9.62994 5.70683 9.60416 5.6427C9.57837 5.57857 9.56559 5.50996 9.56655 5.44084C9.5675 5.37173 9.58218 5.3035 9.60973 5.24011C9.63728 5.17672 9.67715 5.11943 9.72703 5.07158C9.7769 5.02373 9.83578 4.98626 9.90026 4.96136L13.2823 3.60401C13.3673 3.56968 13.4598 3.55839 13.5505 3.57127C13.6412 3.58415 13.7269 3.62076 13.7989 3.67738L17.496 6.57245C17.5609 6.62341 17.6129 6.68905 17.6476 6.76397C17.6823 6.8389 17.6988 6.92098 17.6957 7.0035L17.5326 11.2417L23.8057 16.2889C23.8665 16.3378 23.9156 16.3997 23.9492 16.4701C23.9829 16.5404 24.0004 16.6175 24.0003 16.6955V19.1524C24.0017 19.2649 23.9662 19.3747 23.8994 19.4652L23.878 19.4938H23.877C23.8092 19.5749 23.7181 19.6332 23.6161 19.6609L19.4474 20.8491C19.4011 20.8629 19.353 20.8698 19.3047 20.8695Z"/>
<path d="M13.2925 6.58475L7.30478 3.34137V1.91805L9.39172 1.08346L11.4787 1.91805V4.69546C11.4787 4.83383 11.5336 4.96654 11.6315 5.06439C11.7293 5.16223 11.862 5.2172 12.0004 5.2172C12.1388 5.2172 12.2715 5.16223 12.3693 5.06439C12.4672 4.96654 12.5221 4.83383 12.5221 4.69546V1.56499C12.5222 1.46066 12.491 1.35871 12.4325 1.27233C12.374 1.18594 12.2909 1.1191 12.194 1.08045L9.58533 0.03696C9.46109 -0.012971 9.32235 -0.012971 9.1981 0.03696L6.58943 1.08045C6.49253 1.1191 6.40946 1.18594 6.35096 1.27233C6.29246 1.35871 6.26123 1.46066 6.26132 1.56499V3.34129L0.273096 6.58475C0.19046 6.62946 0.121451 6.69568 0.0733757 6.7764C0.0252999 6.85713 -5.33622e-05 6.94935 8.43271e-08 7.04331V11.739C-3.06743e-05 11.8271 0.02224 11.9138 0.0647363 11.9909C0.107233 12.0681 0.168571 12.1332 0.243034 12.1803L4.17438 14.6647V16.4796L2.76206 17.8919C2.71361 17.9404 2.67517 17.9979 2.64895 18.0612C2.62272 18.1245 2.60922 18.1923 2.60922 18.2608C2.60922 18.3293 2.62272 18.3972 2.64895 18.4604C2.67517 18.5237 2.71361 18.5812 2.76206 18.6297L3.95838 19.826L2.76206 21.0224C2.70547 21.0792 2.66271 21.1483 2.63709 21.2243C2.61148 21.3003 2.60368 21.3812 2.61432 21.4607C2.62496 21.5402 2.65375 21.6162 2.69845 21.6828C2.74315 21.7494 2.80257 21.8048 2.87211 21.8448L6.52425 23.9317C6.53196 23.9361 6.5412 23.9343 6.54909 23.9383C6.62871 23.9836 6.71979 24.0047 6.81122 23.9991C6.90265 23.9935 6.99046 23.9614 7.06394 23.9067C7.07369 23.9003 7.08655 23.9031 7.09591 23.8961L9.18285 22.3308C9.24766 22.2821 9.30027 22.219 9.33652 22.1465C9.37277 22.074 9.39168 21.9941 9.39175 21.913V14.6647L13.3231 12.1803C13.3974 12.1331 13.4586 12.068 13.501 11.9908C13.5434 11.9137 13.5656 11.8271 13.5656 11.7391V7.04335C13.5657 6.94938 13.5403 6.85715 13.4922 6.77642C13.4442 6.69568 13.3751 6.62946 13.2925 6.58475ZM6.78305 9.39116C6.85158 9.3912 6.91944 9.37773 6.98276 9.35152C7.04607 9.32532 7.1036 9.28689 7.15206 9.23843C7.20052 9.18998 7.23894 9.13244 7.26515 9.06912C7.29136 9.00581 7.30482 8.93794 7.30478 8.86942V7.6262L8.34825 8.14795V10.4346H5.21785V8.14795L6.26132 7.6262V8.86942C6.26128 8.93794 6.27474 9.00581 6.30095 9.06912C6.32716 9.13244 6.36558 9.18998 6.41404 9.23843C6.4625 9.28689 6.52003 9.32532 6.58334 9.35152C6.64666 9.37773 6.71452 9.3912 6.78305 9.39116ZM12.5221 11.4516L8.59077 13.936C8.51645 13.9832 8.45525 14.0484 8.41285 14.1255C8.37046 14.2027 8.34823 14.2893 8.34825 14.3773V21.6522L7.30478 22.4351V14.0869C7.30478 13.9485 7.24982 13.8158 7.15197 13.7179C7.05413 13.6201 6.92142 13.5651 6.78305 13.5651C6.64468 13.5651 6.51197 13.6201 6.41413 13.7179C6.31628 13.8158 6.26132 13.9485 6.26132 14.0869V22.5796L3.9828 21.2772L5.06499 20.1949C5.11345 20.1465 5.15189 20.089 5.17811 20.0257C5.20434 19.9624 5.21783 19.8946 5.21783 19.8261C5.21783 19.7576 5.20434 19.6897 5.17811 19.6264C5.15189 19.5631 5.11345 19.5056 5.06499 19.4572L3.86868 18.2608L5.06499 17.0645C5.11346 17.016 5.15191 16.9585 5.17814 16.8952C5.20436 16.8319 5.21786 16.7641 5.21785 16.6956V14.3773C5.21787 14.2893 5.19564 14.2027 5.15325 14.1255C5.11085 14.0484 5.04965 13.9832 4.97533 13.936L1.04296 11.4516V7.35412L6.26134 4.52765V6.45992L4.46276 7.35924C4.37618 7.40268 4.30337 7.46932 4.25245 7.55173C4.20153 7.63414 4.1745 7.72907 4.17438 7.82595V10.9564C4.17434 11.0249 4.18781 11.0928 4.21402 11.1561C4.24022 11.2194 4.27865 11.277 4.32711 11.3254C4.37556 11.3739 4.43309 11.4123 4.49641 11.4385C4.55973 11.4647 4.62759 11.4782 4.69612 11.4782H8.86999C8.93851 11.4782 9.00637 11.4647 9.06969 11.4385C9.13301 11.4123 9.19054 11.3739 9.239 11.3254C9.28745 11.277 9.32588 11.2194 9.35209 11.1561C9.37829 11.0928 9.39176 11.0249 9.39172 10.9564V7.82595C9.3916 7.72907 9.36457 7.63414 9.31365 7.55173C9.26273 7.46932 9.18992 7.40268 9.10334 7.35924L7.30478 6.45992V4.52771L12.5221 7.35412V11.4516Z" fill-opacity="0.75"/>
</g>
<defs>
<clipPath id="clip0">
<rect width="24" height="24.0005" fill="white" transform="translate(0 0.000488281)"/>
</clipPath>
</defs>
</svg>
