<svg width="21" height="16" viewBox="0 0 21 16" fill="#98A1BD" xmlns="http://www.w3.org/2000/svg">
  <path d="M13.8332 7.99999C12.9766 7.99999 12.1482 7.58272 11.4999 6.82545C10.8695 6.08681 10.4845 5.10181 10.4166 4.05272C10.3441 2.93363 10.657 1.90454 11.2974 1.15454C11.9378 0.404545 12.8332 0 13.8332 0C14.8261 0 15.724 0.411818 16.3624 1.16C17.007 1.91545 17.3207 2.94272 17.2482 4.05227C17.1786 5.10272 16.794 6.08727 16.1649 6.82499C15.5182 7.58272 14.6903 7.99999 13.8332 7.99999Z"/>
  <path d="M19.3261 16H8.34074C8.16412 16.001 7.98964 15.9578 7.83073 15.8737C7.67181 15.7897 7.53269 15.6669 7.42408 15.515C7.30888 15.3503 7.22932 15.1593 7.19136 14.9562C7.15341 14.7532 7.15804 14.5435 7.20492 14.3427C7.55575 12.8059 8.42491 11.5314 9.71824 10.6573C10.8661 9.88181 12.3274 9.45453 13.8332 9.45453C15.3686 9.45453 16.7915 9.86362 17.9461 10.6386C19.2424 11.5082 20.1128 12.79 20.4619 14.3454C20.5082 14.5464 20.5124 14.7561 20.474 14.959C20.4356 15.1619 20.3557 15.3527 20.2403 15.5173C20.1318 15.6685 19.993 15.7906 19.8345 15.8743C19.6761 15.958 19.5021 16.001 19.3261 16Z"/>
  <path d="M5.95826 8.18181C4.49201 8.18181 3.20286 6.69454 3.08327 4.86681C3.02411 3.93045 3.2916 3.06454 3.83327 2.42954C4.3691 1.80091 5.12493 1.45454 5.95826 1.45454C6.79159 1.45454 7.54158 1.80273 8.08033 2.435C8.62616 3.075 8.89283 3.93909 8.83033 4.86772C8.71074 6.69499 7.422 8.18181 5.95826 8.18181Z"/>
  <path d="M8.69408 9.61135C7.96116 9.22044 7.00992 9.02499 5.95867 9.02499C4.73118 9.02499 3.5391 9.37408 2.60161 10.0077C1.5387 10.7273 0.823701 11.775 0.534952 13.04C0.492696 13.2219 0.4887 13.412 0.523261 13.5958C0.557823 13.7797 0.630048 13.9527 0.734535 14.1018C0.833679 14.2407 0.960694 14.3528 1.10581 14.4298C1.25093 14.5067 1.41028 14.5462 1.57161 14.5454H6.19659C6.27465 14.5454 6.35023 14.5155 6.41016 14.461C6.47008 14.4064 6.51055 14.3306 6.5245 14.2468C6.52909 14.2182 6.53492 14.1895 6.54159 14.1613C6.89492 12.6132 7.72283 11.305 8.94616 10.3514C8.99115 10.316 9.02734 10.2689 9.05145 10.2144C9.07555 10.1599 9.08681 10.0997 9.08421 10.0393C9.0816 9.97883 9.06521 9.92006 9.03652 9.86827C9.00783 9.81649 8.96775 9.77333 8.91991 9.74272C8.85449 9.7009 8.77949 9.65681 8.69408 9.61135Z"/>
</svg>
