<svg width="24" height="25" viewBox="0 0 24 25" fill="#A6A6A6" xmlns="http://www.w3.org/2000/svg">
<g>
<path d="M23.4783 24.002H16.1739C16.1054 24.002 16.0376 23.9885 15.9743 23.9622C15.911 23.936 15.8535 23.8976 15.805 23.8491L0.152849 8.19693C0.104383 8.1485 0.0659369 8.09099 0.0397101 8.0277C0.0134832 7.9644 -1.06409e-05 7.89656 8.78665e-08 7.82804V0.523692C-3.96924e-05 0.455165 0.0134283 0.387303 0.0396341 0.323984C0.0658398 0.260666 0.104269 0.203134 0.152725 0.154678C0.201181 0.106222 0.258713 0.067793 0.322031 0.0415872C0.38535 0.0153815 0.453212 0.00191343 0.521739 0.00195321H6.78261C6.85112 0.00194248 6.91897 0.0154363 6.98227 0.0416632C7.04556 0.0678901 7.10307 0.106336 7.1515 0.154802L11.3254 4.32871C11.3739 4.37714 11.4123 4.43465 11.4386 4.49795C11.4648 4.56124 11.4783 4.62909 11.4783 4.69761V8.13378L15.8682 12.5237H19.3043C19.3729 12.5237 19.4407 12.5372 19.504 12.5634C19.5673 12.5896 19.6248 12.6281 19.6732 12.6765L23.8472 16.8505C23.8956 16.8989 23.9341 16.9564 23.9603 17.0197C23.9865 17.083 24 17.1508 24 17.2193V23.4802C24 23.5487 23.9866 23.6166 23.9604 23.6799C23.9342 23.7432 23.8957 23.8008 23.8473 23.8492C23.7988 23.8977 23.7413 23.9361 23.678 23.9623C23.6147 23.9885 23.5468 24.002 23.4783 24.002ZM16.3899 22.9585H22.9565V17.4353L19.0883 13.5672H15.6522C15.5837 13.5672 15.5158 13.5537 15.4525 13.5275C15.3892 13.5012 15.3317 13.4628 15.2833 13.4143L10.5876 8.71867C10.5392 8.67024 10.5007 8.61273 10.4745 8.54944C10.4483 8.48614 10.4348 8.41829 10.4348 8.34978V4.91361L6.56661 1.04543H1.04348V7.61204L16.3899 22.9585Z" fill-opacity="0.75" />
</g>
</svg>
