<svg width="24" height="25" viewBox="0 0 24 25" fill="#A6A6A6" xmlns="http://www.w3.org/2000/svg">
<g clip-path="url(#clip0)">
<path d="M10.0263 15.3392C10.0469 15.2767 10.0796 15.219 10.1225 15.1692C10.1655 15.1195 10.2179 15.0788 10.2766 15.0493C10.3354 15.0199 10.3994 15.0024 10.465 14.9979C10.5305 14.9933 10.5964 15.0018 10.6587 15.0227L12.0005 15.47L13.3423 15.0227C13.4682 14.9808 13.6056 14.9905 13.7242 15.0499C13.8429 15.1092 13.9331 15.2133 13.9751 15.3392C14.0171 15.465 14.0073 15.6024 13.948 15.7211C13.8886 15.8398 13.7846 15.93 13.6587 15.972L12.1587 16.472C12.0559 16.5058 11.945 16.5058 11.8423 16.472L10.3423 15.972C10.2166 15.9298 10.1127 15.8395 10.0534 15.7209C9.99421 15.6023 9.98446 15.465 10.0263 15.3392ZM6.10982 22.3998L6.90282 20.8324C6.93244 20.7738 6.95023 20.71 6.95518 20.6445C6.96012 20.579 6.95211 20.5132 6.93162 20.4508C6.91112 20.3884 6.87854 20.3306 6.83573 20.2808C6.79292 20.231 6.74072 20.1902 6.68211 20.1605C6.62351 20.1309 6.55964 20.1131 6.49416 20.1082C6.42867 20.1032 6.36286 20.1112 6.30047 20.1317C6.23808 20.1522 6.18034 20.1848 6.13054 20.2276C6.08074 20.2704 6.03986 20.3226 6.01024 20.3812L5.05418 22.2719C5.00674 22.3659 4.99016 22.4725 5.00682 22.5765C5.02348 22.6805 5.07252 22.7765 5.14696 22.851L7.14696 24.8511C7.24104 24.9433 7.3677 24.9946 7.49941 24.9939C7.63113 24.9933 7.75727 24.9407 7.85041 24.8475C7.94355 24.7544 7.99617 24.6282 7.99683 24.4965C7.9975 24.3648 7.94615 24.2381 7.85396 24.1441L6.10982 22.3998ZM15.2328 19.6732C15.2874 19.7097 15.3343 19.7566 15.3707 19.8112C15.4071 19.8658 15.4324 19.9271 15.4451 19.9915C15.4578 20.0559 15.4577 20.1222 15.4447 20.1866C15.4317 20.251 15.4062 20.3121 15.3695 20.3666L12.4159 24.7759C12.3702 24.8441 12.3083 24.9 12.2359 24.9387C12.1634 24.9773 12.0825 24.9976 12.0004 24.9976C11.9183 24.9976 11.8374 24.9773 11.7649 24.9387C11.6924 24.9 11.6306 24.8441 11.5849 24.7759L8.6313 20.3666C8.55802 20.2564 8.53141 20.1216 8.5573 19.9918C8.58319 19.862 8.65948 19.7478 8.76944 19.6741C8.87941 19.6005 9.01408 19.5734 9.14396 19.5989C9.27384 19.6243 9.38834 19.7002 9.46236 19.8099L10.5061 21.3681L11.5532 19.2738C11.5993 19.1963 11.6648 19.1322 11.7432 19.0876C11.8216 19.0431 11.9103 19.0196 12.0004 19.0196C12.0906 19.0196 12.1793 19.0431 12.2577 19.0876C12.3361 19.1322 12.4016 19.1963 12.4477 19.2738L13.4955 21.368L14.5395 19.8099C14.576 19.7554 14.6229 19.7086 14.6775 19.6722C14.7322 19.6358 14.7934 19.6105 14.8578 19.5978C14.9222 19.5851 14.9885 19.5852 15.0529 19.5982C15.1172 19.6111 15.1784 19.6366 15.2329 19.6732H15.2328ZM12.8552 22.3235L12.0005 20.6156L11.1464 22.3239L12.0005 23.5991L12.8552 22.3235ZM18.9467 22.2719L17.9907 20.3813C17.9309 20.2629 17.8265 20.1731 17.7005 20.1318C17.5745 20.0904 17.4372 20.1007 17.3188 20.1606C17.2004 20.2204 17.1107 20.3248 17.0693 20.4508C17.0279 20.5768 17.0383 20.7141 17.0981 20.8324L17.8911 22.3999L16.147 24.144C16.0998 24.1903 16.0622 24.2454 16.0365 24.3063C16.0107 24.3671 15.9973 24.4325 15.9969 24.4986C15.9966 24.5647 16.0094 24.6301 16.0345 24.6913C16.0596 24.7524 16.0966 24.8079 16.1434 24.8546C16.1901 24.9014 16.2456 24.9384 16.3067 24.9635C16.3678 24.9886 16.4333 25.0014 16.4994 25.0011C16.5655 25.0007 16.6308 24.9873 16.6917 24.9615C16.7526 24.9358 16.8077 24.8982 16.854 24.851L18.854 22.851C18.9284 22.7765 18.9774 22.6804 18.9941 22.5765C19.0107 22.4725 18.9942 22.3659 18.9467 22.2719V22.2719Z" />
<path d="M12.0005 18.9974C11.9345 18.9974 11.8691 18.9845 11.8081 18.9593L5.80811 16.4593C5.71703 16.4212 5.63924 16.357 5.58451 16.2748C5.52979 16.1926 5.50055 16.0961 5.50049 15.9974V14.3059L3.77686 13.4446C3.69382 13.403 3.62398 13.3392 3.57517 13.2602C3.52636 13.1812 3.5005 13.0902 3.50049 12.9973V10.4972C3.50045 10.4316 3.51336 10.3665 3.53848 10.3059C3.56359 10.2452 3.60042 10.19 3.64685 10.1436C3.69329 10.0972 3.74843 10.0603 3.8091 10.0352C3.86978 10.0101 3.93482 9.9972 4.00049 9.99723H5.50049V9.49722C5.50049 9.36461 5.55317 9.23743 5.64694 9.14366C5.7407 9.04989 5.86788 8.99721 6.00049 8.99721C6.1331 8.99721 6.26027 9.04989 6.35404 9.14366C6.44781 9.23743 6.50049 9.36461 6.50049 9.49722V15.6644L12.0005 17.9554L17.5005 15.6644V9.49722C17.5005 9.36461 17.5532 9.23743 17.6469 9.14366C17.7407 9.04989 17.8679 8.99721 18.0005 8.99721C18.1331 8.99721 18.2603 9.04989 18.354 9.14366C18.4478 9.23743 18.5005 9.36461 18.5005 9.49722V9.99723H20.0005C20.0662 9.9972 20.1312 10.0101 20.1919 10.0352C20.2526 10.0603 20.3077 10.0972 20.3541 10.1436C20.4006 10.19 20.4374 10.2452 20.4625 10.3059C20.4876 10.3665 20.5005 10.4316 20.5005 10.4972V12.9973C20.5004 13.0901 20.4745 13.1811 20.4257 13.2601C20.3769 13.3391 20.3071 13.4029 20.2241 13.4446L18.5005 14.3059V15.9974C18.5005 16.0961 18.4713 16.1927 18.4166 16.2749C18.3619 16.3571 18.284 16.4212 18.1929 16.4593L12.1929 18.9593C12.1319 18.9845 12.0665 18.9974 12.0005 18.9974ZM18.5005 10.9973V13.1882L19.5005 12.6882V10.9973H18.5005ZM4.50049 12.6882L5.50049 13.1882V10.9973H4.50049V12.6882ZM14.0005 12.9973C13.9348 12.9973 13.8698 12.9844 13.8091 12.9593C13.7484 12.9342 13.6933 12.8974 13.6469 12.8509C13.6004 12.8045 13.5636 12.7494 13.5385 12.6887C13.5134 12.628 13.5005 12.563 13.5005 12.4973V11.4973C13.5005 11.3647 13.5532 11.2375 13.6469 11.1437C13.7407 11.0499 13.8679 10.9973 14.0005 10.9973C14.1331 10.9973 14.2603 11.0499 14.354 11.1437C14.4478 11.2375 14.5005 11.3647 14.5005 11.4973V12.4973C14.5005 12.563 14.4876 12.628 14.4625 12.6887C14.4374 12.7494 14.4006 12.8045 14.3541 12.8509C14.3077 12.8974 14.2526 12.9342 14.1919 12.9593C14.1312 12.9844 14.0662 12.9973 14.0005 12.9973ZM10.0005 12.9973C9.93482 12.9973 9.86978 12.9844 9.8091 12.9593C9.74843 12.9342 9.69329 12.8974 9.64685 12.8509C9.60042 12.8045 9.56359 12.7494 9.53848 12.6887C9.51336 12.628 9.50045 12.563 9.50049 12.4973V11.4973C9.50049 11.3647 9.55317 11.2375 9.64694 11.1437C9.7407 11.0499 9.86788 10.9973 10.0005 10.9973C10.1331 10.9973 10.2603 11.0499 10.354 11.1437C10.4478 11.2375 10.5005 11.3647 10.5005 11.4973V12.4973C10.5005 12.563 10.4876 12.628 10.4625 12.6887C10.4374 12.7494 10.4006 12.8045 10.3541 12.8509C10.3077 12.8974 10.2526 12.9342 10.1919 12.9593C10.1312 12.9844 10.0662 12.9973 10.0005 12.9973ZM12.0005 6.49716C11.9348 6.49724 11.8698 6.48434 11.8091 6.4592C11.7484 6.43406 11.6933 6.39718 11.647 6.35068L10.647 5.35066C10.6005 5.30425 10.5637 5.24914 10.5386 5.18848C10.5134 5.12782 10.5005 5.0628 10.5005 4.99713V3.4971C10.5005 3.43143 10.5134 3.36639 10.5385 3.30571C10.5636 3.24503 10.6004 3.1899 10.6469 3.14346C10.6933 3.09702 10.7484 3.06019 10.8091 3.03508C10.8698 3.00996 10.9348 2.99706 11.0005 2.99709H13.0005C13.0662 2.99705 13.1312 3.00996 13.1919 3.03508C13.2526 3.06019 13.3077 3.09702 13.3541 3.14346C13.4006 3.18989 13.4374 3.24503 13.4625 3.30571C13.4876 3.36639 13.5005 3.43143 13.5005 3.4971V4.99713C13.5005 5.0628 13.4876 5.12781 13.4624 5.18848C13.4373 5.24914 13.4005 5.30425 13.354 5.35066L12.354 6.35068C12.3076 6.39718 12.2525 6.43406 12.1919 6.4592C12.1312 6.48434 12.0662 6.49724 12.0005 6.49716ZM11.5005 4.79013L12.0005 5.29014L12.5005 4.79013V3.99711H11.5005V4.79013ZM23.1586 24.9721C23.2844 24.93 23.3882 24.8397 23.4475 24.7211C23.5068 24.6025 23.5167 24.4652 23.475 24.3393L22.475 21.3393C22.4471 21.2556 22.3975 21.1808 22.3313 21.1225C22.2651 21.0641 22.1846 21.0244 22.0981 21.0073L12.0985 19.0072C12.0338 18.9935 11.967 18.9935 11.9023 19.0072L1.90225 21.0073C1.81589 21.0246 1.73563 21.0644 1.66961 21.1227C1.60358 21.181 1.55413 21.2557 1.52625 21.3393L0.52625 24.3393C0.505212 24.4017 0.496684 24.4675 0.501156 24.5332C0.505629 24.5988 0.523013 24.6629 0.552312 24.7218C0.581611 24.7807 0.622249 24.8332 0.671895 24.8764C0.72154 24.9196 0.779218 24.9525 0.841619 24.9733C0.90402 24.9941 0.969918 25.0024 1.03553 24.9977C1.10115 24.993 1.16519 24.9754 1.22399 24.9459C1.28278 24.9164 1.33518 24.8756 1.37816 24.8258C1.42115 24.776 1.45389 24.7182 1.47449 24.6557L2.38319 21.9311L12.0005 20.0072L21.6177 21.9311L22.5259 24.6557C22.5593 24.7552 22.6231 24.8416 22.7082 24.9029C22.7934 24.9642 22.8955 24.9973 23.0004 24.9975C23.0542 24.9977 23.1076 24.9891 23.1586 24.9721ZM12.0005 11.4973C11.9597 11.4973 11.919 11.4923 11.8794 11.4821L5.8794 9.98209C5.79143 9.96025 5.71107 9.91484 5.64698 9.85075C5.58288 9.78665 5.53747 9.70629 5.51563 9.61832L5.07124 7.84143L2.27681 6.4444C2.20593 6.40899 2.14448 6.35723 2.09753 6.29339C2.05058 6.22956 2.01948 6.15548 2.0068 6.07726C1.99411 5.99904 2.0002 5.91893 2.02457 5.84353C2.04893 5.76813 2.09087 5.6996 2.14693 5.6436L4.64693 3.14355C4.70702 3.08336 4.78147 3.03949 4.86324 3.01609L11.8632 1.01605C11.9529 0.990662 12.0479 0.990662 12.1377 1.01605L19.1381 3.01609C19.2197 3.03961 19.294 3.08346 19.354 3.14354L21.854 5.64359C21.9099 5.69966 21.9517 5.7682 21.976 5.84357C22.0002 5.91895 22.0063 5.99901 21.9936 6.07717C21.9809 6.15534 21.9499 6.22938 21.903 6.29322C21.8562 6.35706 21.7949 6.40887 21.7241 6.44439L18.9301 7.84142L18.4858 9.61832C18.4638 9.70632 18.4183 9.78668 18.3542 9.85078C18.29 9.91487 18.2096 9.96027 18.1215 9.98209L12.1215 11.4821C12.082 11.4923 12.0413 11.4973 12.0005 11.4973ZM6.41255 9.08511L12.0005 10.4816L17.5884 9.08511L17.8598 7.99719H6.14107L6.41255 9.08511ZM5.61861 6.99717H18.3823L20.6567 5.85994L18.7387 3.94242L12.0005 2.01707L5.26216 3.94242L3.34468 5.85994L5.61861 6.99717Z" fill-opacity="0.75"/>
</g>
<defs>
<clipPath id="clip0">
<rect width="24" height="24.0005" fill="white" transform="translate(0 0.997559)"/>
</clipPath>
</defs>
</svg>
