<svg width="24" height="25" viewBox="0 0 24 25" fill="#A6A6A6" xmlns="http://www.w3.org/2000/svg">
<g clip-path="url(#clip0)">
<path d="M19.0429 11.479H17.4777C17.3662 11.479 17.2575 11.4433 17.1678 11.377C17.0781 11.3107 17.0121 11.2173 16.9794 11.1106L16.6961 10.1899L15.3092 9.44654L13.96 9.76906C13.8515 9.79525 13.7375 9.78587 13.6347 9.74229C13.532 9.69871 13.4459 9.62324 13.3894 9.52703L12.5935 8.17883C12.5368 8.08267 12.5124 7.97089 12.5239 7.85985C12.5353 7.74881 12.582 7.64436 12.6572 7.5618L13.5646 6.56722V4.91176L12.6577 3.91769C12.5823 3.83525 12.5355 3.73082 12.5239 3.61976C12.5123 3.50869 12.5367 3.39684 12.5935 3.30066L13.3893 1.95246C13.4458 1.85617 13.5318 1.78064 13.6346 1.73704C13.7374 1.69345 13.8515 1.68412 13.96 1.71043L15.3092 2.03295L16.6961 1.28905L16.9794 0.368844C17.0121 0.262174 17.0781 0.16881 17.1678 0.102497C17.2575 0.0361833 17.3662 0.000425711 17.4777 0.000488363H19.0429C19.1545 0.000431255 19.2631 0.0361912 19.3528 0.102504C19.4425 0.168816 19.5086 0.262178 19.5412 0.368844L19.8245 1.28903L21.2124 2.03293L22.5616 1.71041C22.6702 1.68368 22.7845 1.69287 22.8874 1.73659C22.9903 1.78032 23.0762 1.85623 23.1323 1.95294L23.9271 3.30114C23.9838 3.39723 24.0082 3.509 23.9967 3.61998C23.9851 3.73097 23.9382 3.83532 23.8629 3.91766L22.956 4.91173V6.56723L23.8629 7.56181C23.9382 7.64416 23.9851 7.7485 23.9967 7.85949C24.0082 7.97047 23.9838 8.08224 23.9271 8.17833L23.1323 9.52653C23.0761 9.62315 22.9902 9.69899 22.8873 9.74271C22.7844 9.78643 22.6702 9.79567 22.5616 9.76906L21.2124 9.44654L19.8245 10.1899L19.5412 11.1106C19.5086 11.2173 19.4425 11.3107 19.3528 11.377C19.2631 11.4433 19.1545 11.479 19.0429 11.479ZM17.8629 10.4355H18.6577L18.8911 9.67783C18.9311 9.54628 19.0216 9.43595 19.1428 9.37104L20.8945 8.43301C21.0073 8.37299 21.138 8.35614 21.2624 8.38562L22.4291 8.66433L22.8327 7.98013L22.049 7.12108C21.9613 7.02497 21.9126 6.89961 21.9125 6.76951V4.70949C21.9125 4.57937 21.9612 4.45398 22.049 4.35791L22.8327 3.49886L22.4291 2.81509L21.2624 3.0938C21.1381 3.12353 21.0072 3.10667 20.8945 3.04641L19.1428 2.10787C19.0216 2.04297 18.9311 1.93267 18.8911 1.80114L18.6577 1.04399H17.8629L17.6295 1.80114C17.6098 1.86623 17.5774 1.92679 17.5342 1.97934C17.491 2.03189 17.4379 2.07539 17.3778 2.10736L15.6271 3.0459C15.5148 3.10711 15.3836 3.12419 15.2593 3.0938L14.0925 2.81509L13.6879 3.49937L14.4716 4.35791C14.5593 4.45398 14.608 4.57937 14.6081 4.70949V6.76948C14.6079 6.89958 14.5593 7.02493 14.4716 7.12105L13.6879 7.9801L14.0925 8.66438L15.2593 8.38568C15.3836 8.35613 15.5144 8.37298 15.6271 8.43306L17.3778 9.37111C17.499 9.43602 17.5896 9.54635 17.6295 9.6779L17.8629 10.4355ZM20.6041 4.11908L18.5172 2.938C18.4389 2.89342 18.3504 2.86998 18.2604 2.86998C18.1703 2.86998 18.0818 2.89342 18.0036 2.938L15.9166 4.11908C15.8362 4.16447 15.7693 4.23044 15.7227 4.31021C15.6761 4.38998 15.6516 4.4807 15.6517 4.57306V6.90616C15.6516 6.99852 15.6761 7.08924 15.7227 7.16901C15.7693 7.24879 15.8362 7.31475 15.9166 7.36014L18.0036 8.54172C18.0819 8.58614 18.1703 8.60948 18.2604 8.60948C18.3504 8.60948 18.4389 8.58614 18.5172 8.54172L20.6041 7.36014C20.6846 7.31475 20.7515 7.24879 20.798 7.16901C20.8446 7.08924 20.8691 6.99853 20.8691 6.90616V4.5731C20.8691 4.48073 20.8446 4.39 20.798 4.31022C20.7515 4.23043 20.6845 4.16447 20.6041 4.11908H20.6041ZM19.8256 6.60197L18.2604 7.48804L16.6952 6.60197V4.87724L18.2604 3.9917L19.8256 4.87724V6.60197Z" />
<path d="M7.82609 20.1134C7.73274 20.1133 7.64111 20.0883 7.56063 20.041L4.43019 18.1894C4.35209 18.1432 4.28737 18.0775 4.24243 17.9987C4.19749 17.9199 4.17387 17.8307 4.17391 17.74V14.6095C4.17401 14.5189 4.19763 14.4298 4.24246 14.351C4.28729 14.2723 4.3518 14.2065 4.42968 14.1601L7.56011 12.3075C7.64085 12.2604 7.73263 12.2357 7.82608 12.2357C7.91953 12.2357 8.01131 12.2604 8.09205 12.3075L11.2225 14.1601C11.3004 14.2065 11.3649 14.2723 11.4097 14.351C11.4545 14.4298 11.4782 14.5189 11.4783 14.6095V17.74C11.4783 17.8307 11.4547 17.9199 11.4097 17.9987C11.3648 18.0775 11.3001 18.1432 11.222 18.1894L8.09154 20.041C8.01105 20.0883 7.91943 20.1133 7.82609 20.1134ZM5.21739 17.4424L7.82609 18.9853L10.4348 17.4424V14.9071L7.82609 13.3632L5.21739 14.9071V17.4424ZM8.86957 24.001H6.78261C6.66817 24.0011 6.55687 23.9635 6.4659 23.8941C6.37492 23.8247 6.30932 23.7272 6.2792 23.6168L5.71671 21.5553L4.35377 20.7645L1.68443 21.4514C1.57349 21.4796 1.45635 21.4707 1.35097 21.426C1.24559 21.3812 1.1578 21.3032 1.10105 21.2037L0.0682324 19.3898C0.0116917 19.2905 -0.0106096 19.1753 0.00476626 19.0621C0.0201422 18.9488 0.0723416 18.8438 0.153318 18.7631L2.08696 16.8331V15.5165L0.153391 13.5864C0.072415 13.5057 0.0202093 13.4007 0.00482044 13.2875C-0.0105685 13.1742 0.0117137 13.0591 0.0682324 12.9597L1.101 11.1453C1.15785 11.046 1.24569 10.9681 1.35105 10.9235C1.45642 10.8788 1.57351 10.87 1.68439 10.8982L4.35372 11.585L5.71666 10.7948L6.27916 8.73274C6.30936 8.62236 6.37499 8.52497 6.46595 8.45554C6.55692 8.38612 6.66818 8.34851 6.78261 8.34851H8.86957C8.98405 8.34853 9.09536 8.3862 9.18632 8.45571C9.27729 8.52523 9.34287 8.62273 9.37296 8.7332L9.93495 10.7947L11.2984 11.585L13.9662 10.8982C14.0771 10.8692 14.1946 10.8777 14.3002 10.9224C14.4058 10.9671 14.4936 11.0455 14.5501 11.1453L15.5833 12.9597C15.6398 13.059 15.6621 13.1741 15.6468 13.2874C15.6316 13.4006 15.5795 13.5057 15.4987 13.5864L13.5646 15.5165V16.8331L15.4988 18.7631C15.5796 18.8439 15.6316 18.949 15.6469 19.0622C15.6622 19.1754 15.6399 19.2905 15.5834 19.3898L14.5501 21.2037C14.4933 21.3033 14.4054 21.3814 14.2999 21.4262C14.1945 21.4709 14.0772 21.4798 13.9662 21.4514L11.2984 20.7645L9.93493 21.5553L9.37294 23.6168C9.34265 23.7271 9.277 23.8245 9.18607 23.8939C9.09514 23.9632 8.98395 24.0009 8.86957 24.001ZM7.181 22.9575H8.47108L8.98467 21.0733C9.02086 20.941 9.1076 20.8283 9.22617 20.7594L10.9595 19.7547C11.0179 19.7198 11.0826 19.6971 11.15 19.6878C11.2173 19.6786 11.2858 19.6829 11.3513 19.7006L13.8408 20.3416L14.4797 19.2197L12.6745 17.418C12.6259 17.3697 12.5873 17.3122 12.561 17.2489C12.5346 17.1856 12.5211 17.1177 12.5211 17.0491V15.3004C12.5211 15.2319 12.5346 15.164 12.561 15.1006C12.5873 15.0373 12.6259 14.9799 12.6745 14.9315L14.4797 13.1299L13.8408 12.0079L11.3513 12.6489C11.2187 12.6831 11.078 12.6637 10.9595 12.5949L9.22617 11.5901C9.10757 11.521 9.02085 11.4081 8.98467 11.2757L8.47108 9.39201H7.181L6.66691 11.2762C6.63057 11.4084 6.54386 11.5211 6.42539 11.5901L4.69252 12.5949C4.57389 12.6631 4.43337 12.6824 4.30071 12.6489L1.81073 12.0079L1.17234 13.1298L2.97704 14.9315C3.02568 14.9799 3.06427 15.0373 3.0906 15.1006C3.11693 15.164 3.13046 15.2319 3.13043 15.3004V17.0491C3.13046 17.1177 3.11693 17.1856 3.0906 17.2489C3.06427 17.3122 3.02568 17.3697 2.97704 17.418L1.17234 19.2197L1.81076 20.3417L4.30074 19.7007C4.36636 19.6832 4.4348 19.679 4.50207 19.6883C4.56934 19.6976 4.63409 19.7201 4.69255 19.7547L6.42539 20.7595C6.54397 20.8283 6.63071 20.9411 6.66691 21.0733L7.181 22.9575ZM7.82496 15.1311C7.7697 15.1313 7.71679 15.1535 7.67783 15.1927L6.84409 16.0264C6.8247 16.0458 6.80931 16.0688 6.79881 16.0941C6.78831 16.1194 6.78289 16.1466 6.78288 16.174C6.78286 16.2014 6.78824 16.2285 6.79872 16.2538C6.80919 16.2792 6.82455 16.3022 6.84392 16.3216L6.84409 16.3217L7.67783 17.1555C7.71694 17.1947 7.77001 17.2167 7.82536 17.2167C7.88071 17.2167 7.93381 17.1948 7.97297 17.1557L7.97313 17.1555L8.80687 16.3217C8.84603 16.2826 8.86805 16.2295 8.86808 16.1742C8.8681 16.1188 8.84615 16.0658 8.80703 16.0266L8.80687 16.0264L7.97313 15.1927C7.93379 15.1534 7.88054 15.1313 7.82496 15.1311Z" fill-opacity="0.75"/>
</g>
<defs>
<clipPath id="clip0">
<rect width="24" height="24.0005" fill="white" transform="translate(0 0.00146484)"/>
</clipPath>
</defs>
</svg>
