<svg width="24" height="25" viewBox="0 0 24 25" fill="#40AFED" xmlns="http://www.w3.org/2000/svg">
<g clip-path="url(#clip0)">
<path d="M7.5 22.5346C7.49463 22.5346 7.49219 22.5385 7.48486 22.5346H7.48438C7.38522 22.5319 7.28921 22.4992 7.20898 22.4409L0.21387 17.5542C0.147841 17.5081 0.0939187 17.4467 0.0566844 17.3753C0.01945 17.3039 4.40407e-06 17.2245 3.0647e-10 17.144V1.49655C-3.19992e-06 1.40515 0.0250567 1.3155 0.0724539 1.23735C0.119851 1.1592 0.187771 1.09555 0.268824 1.05331C0.349878 1.01107 0.440963 0.991865 0.53217 0.997784C0.623378 1.0037 0.711216 1.03452 0.78613 1.08688L7.5 5.77633L14.2139 1.08688C14.2978 1.02824 14.3976 0.996793 14.5 0.996793C14.6024 0.996793 14.7022 1.02824 14.7861 1.08688L21.7861 5.97653C21.8521 6.02253 21.9061 6.08381 21.9433 6.15514C21.9805 6.22647 22 6.30574 22 6.3862V9.49655C22 9.62916 21.9473 9.75634 21.8536 9.85011C21.7598 9.94387 21.6326 9.99655 21.5 9.99655C21.3674 9.99655 21.2402 9.94387 21.1464 9.85011C21.0527 9.75634 21 9.62916 21 9.49655V6.64694L15 2.45553V11.4965C15 11.6291 14.9473 11.7563 14.8536 11.8501C14.7598 11.9439 14.6326 11.9965 14.5 11.9965C14.3674 11.9965 14.2402 11.9439 14.1464 11.8501C14.0527 11.7563 14 11.6291 14 11.4965V2.45553L8 6.64694V21.0757L12.7139 17.7827C12.7677 17.7448 12.8285 17.718 12.8927 17.7037C12.957 17.6894 13.0234 17.688 13.0882 17.6994C13.153 17.7108 13.2149 17.735 13.2704 17.7704C13.3259 17.8058 13.3738 17.8518 13.4115 17.9058C13.4491 17.9597 13.4757 18.0206 13.4898 18.0849C13.5039 18.1492 13.5052 18.2156 13.4935 18.2804C13.4819 18.3451 13.4576 18.407 13.422 18.4623C13.3864 18.5177 13.3402 18.5655 13.2861 18.603L7.791 22.4409C7.71077 22.4992 7.61476 22.5319 7.5156 22.5346H7.5ZM1 16.8833L7 21.0757V6.64694L1 2.45553V16.8833Z" fill="#A6A6A6"/>
<path d="M19.5 24.9966C19.4146 24.9967 19.3305 24.9748 19.256 24.9331C19.1814 24.8913 19.1188 24.8312 19.0742 24.7583L15.0742 18.2583C15.0255 18.1797 14.9997 18.089 15 17.9966V13.9966C15 13.9117 15.0216 13.8283 15.0628 13.7542C15.104 13.68 15.1634 13.6176 15.2354 13.5727L19.2354 11.0727C19.3147 11.023 19.4064 10.9966 19.5 10.9966C19.5936 10.9966 19.6854 11.023 19.7647 11.0727L23.7647 13.5727C23.8366 13.6176 23.896 13.68 23.9372 13.7542C23.9784 13.8283 24 13.9117 24 13.9966V17.9966C24.0003 18.089 23.9746 18.1797 23.9258 18.2583L19.9258 24.7583C19.8812 24.8312 19.8186 24.8913 19.744 24.9331C19.6695 24.9748 19.5854 24.9967 19.5 24.9966ZM16 17.855L19.5 23.5425L23 17.855V14.2739L19.5 12.0864L16 14.2739V17.855ZM19.5 18.9966C19.4064 18.9965 19.3147 18.9701 19.2354 18.9204L17.2354 17.6704C17.1633 17.6256 17.1038 17.5632 17.0626 17.489C17.0214 17.4149 16.9999 17.3314 17 17.2466V15.2466C16.9999 15.1617 17.0214 15.0782 17.0626 15.0041C17.1038 14.9299 17.1633 14.8675 17.2354 14.8227L19.2354 13.5727C19.3147 13.523 19.4064 13.4966 19.5 13.4966C19.5936 13.4966 19.6854 13.523 19.7647 13.5727L21.7647 14.8227C21.8367 14.8675 21.8962 14.9299 21.9374 15.0041C21.9786 15.0782 22.0001 15.1617 22 15.2466V17.2466C22.0001 17.3314 21.9786 17.4149 21.9374 17.489C21.8962 17.5632 21.8367 17.6256 21.7647 17.6704L19.7647 18.9204C19.6853 18.9701 19.5936 18.9965 19.5 18.9966ZM18 16.9692L19.5 17.9067L21 16.9692V15.5239L19.5 14.5864L18 15.5239V16.9692Z" />
</g>
<defs>
<clipPath id="clip0">
<rect width="24" height="24.0005" fill="white" transform="translate(0 0.996094)"/>
</clipPath>
</defs>
</svg>
