<svg width="22" height="29" viewBox="0 0 22 29" fill="none" stroke="white" xmlns="http://www.w3.org/2000/svg">
<path d="M8 27.5V17C8 16.337 8.26339 15.7011 8.73223 15.2322C9.20107 14.7634 9.83696 14.5 10.5 14.5V14.5C11.163 14.5 11.7989 14.7634 12.2678 15.2322C12.7366 15.7011 13 16.337 13 17V22.5H17C18.0609 22.5 19.0783 22.9214 19.8284 23.6716C20.5786 24.4217 21 25.4391 21 26.5V27.5" stroke-width="2" stroke-linecap="round" stroke-linejoin="round"/>
<path d="M3.77997 17.72C2.45208 16.3911 1.54799 14.6984 1.182 12.8557C0.81601 11.0131 1.00455 9.10335 1.72379 7.36786C2.44303 5.63237 3.66067 4.14909 5.22279 3.10552C6.7849 2.06196 8.62135 1.50497 10.5 1.50497C12.3786 1.50497 14.215 2.06196 15.7772 3.10552C17.3393 4.14909 18.5569 5.63237 19.2762 7.36786C19.9954 9.10335 20.1839 11.0131 19.8179 12.8557C19.452 14.6984 18.5479 16.3911 17.22 17.72" stroke-width="2" stroke-linecap="round" stroke-linejoin="round"/>
</svg>
